<svg width="56" height="55" viewBox="0 0 56 55" fill="none" xmlns="http://www.w3.org/2000/svg">
<path d="M8.10156 8.86877L22.5562 26.0047L28.4516 32.9828L34.3469 26.0047L48.8016 8.86877H8.10156Z" fill="black"/>
<path d="M29.6892 37.3656C29.5411 37.5518 29.3529 37.7022 29.1386 37.8055C28.9244 37.9089 28.6895 37.9625 28.4517 37.9625C28.2138 37.9625 27.979 37.9089 27.7647 37.8055C27.5504 37.7022 27.3622 37.5518 27.2142 37.3656L21.336 30.3875L8.10166 46.0625H48.8017L35.5673 30.3875L29.6892 37.3656ZM3.75322 45.375L18.861 27.5L3.08291 8.78284C2.81107 9.55007 2.67158 10.3579 2.67041 11.1719V43.8281C2.67611 44.8063 2.8869 45.7724 3.28916 46.6641C3.29515 46.1946 3.45856 45.7406 3.75322 45.375ZM53.8204 8.78284L38.0423 27.5L53.8204 46.2C54.0907 45.4264 54.2301 44.6132 54.2329 43.7938V11.1719C54.2317 10.3579 54.0923 9.55007 53.8204 8.78284Z" fill="black"/>
</svg>
