<svg width="511" height="97" viewBox="0 0 511 97" fill="none" xmlns="http://www.w3.org/2000/svg">
<path d="M35.6982 3.98881H20.0182V45.6783H15.6799V3.98881H0V0H35.6982V3.98881Z" fill="black"/>
<path d="M31.4431 45.6783L46.9371 10.4224H50.1599L65.5299 45.6783H61.4395L56.7293 35.0629H40.3057L35.6575 45.6783H31.4431ZM48.5485 15.4406L41.2353 31.5245H55.7377L48.5485 15.4406Z" fill="black"/>
<path d="M103.331 45.6783V17.6923L90.0685 39.2448H87.8374L74.5126 17.6923V45.6783H70.6701V10.4224H74.6985L88.953 33.8406L103.207 10.4224H107.236V45.6783H103.331Z" fill="black"/>
<path d="M116.336 45.6783V10.4224H132.016C134.165 10.4224 136.065 10.98 137.718 12.0951C139.412 13.2103 140.734 14.6256 141.684 16.3413C142.635 18.014 143.11 19.7725 143.11 21.6168C143.11 23.2895 142.759 24.855 142.056 26.3133C141.395 27.7716 140.445 29.0154 139.205 30.0448C138.007 31.0741 136.582 31.7604 134.929 32.1035L143.977 45.6783H139.515L130.963 32.8755H120.179V45.6783H116.336ZM120.179 29.2727H132.14C133.545 29.2727 134.764 28.9296 135.797 28.2434C136.871 27.5142 137.697 26.5706 138.276 25.4126C138.854 24.2117 139.143 22.9464 139.143 21.6168C139.143 20.2443 138.813 19.0005 138.152 17.8853C137.532 16.7273 136.664 15.8051 135.549 15.1189C134.433 14.3897 133.173 14.0252 131.768 14.0252H120.179V29.2727Z" fill="black"/>
<path d="M146.108 45.6783L161.602 10.4224H164.825L180.195 45.6783H176.105L171.395 35.0629H154.971L150.323 45.6783H146.108ZM163.214 15.4406L155.901 31.5245H170.403L163.214 15.4406Z" fill="black"/>
<path d="M198.815 45.9357C196.336 45.9357 194.042 45.4424 191.935 44.4559C189.828 43.4266 187.989 42.0541 186.419 40.3385C184.891 38.6228 183.692 36.6928 182.825 34.5483C181.998 32.4037 181.585 30.1949 181.585 27.9217C181.585 25.5627 181.998 23.3324 182.825 21.2308C183.692 19.0863 184.891 17.1991 186.419 15.5692C187.948 13.8965 189.745 12.5883 191.811 11.6448C193.919 10.7012 196.212 10.2294 198.691 10.2294C202.285 10.2294 205.219 10.9371 207.491 12.3524C209.805 13.7678 211.561 15.6121 212.759 17.8853L209.722 20.0084C208.607 17.8639 207.057 16.2984 205.074 15.3119C203.132 14.3254 200.963 13.8322 198.567 13.8322C196.542 13.8322 194.724 14.2396 193.113 15.0545C191.501 15.8266 190.117 16.8988 188.96 18.2713C187.845 19.6009 186.977 21.1235 186.357 22.8392C185.779 24.5119 185.49 26.2489 185.49 28.0503C185.49 29.9804 185.82 31.8033 186.481 33.5189C187.184 35.2345 188.155 36.7571 189.394 38.0867C190.634 39.3734 192.08 40.4028 193.733 41.1748C195.385 41.904 197.162 42.2685 199.062 42.2685C201.252 42.2685 203.339 41.7538 205.322 40.7245C207.347 39.6951 209.247 38.0867 211.024 35.8993V40.1455C209.289 42.0755 207.388 43.5338 205.322 44.5203C203.298 45.4639 201.128 45.9357 198.815 45.9357ZM210.466 31.3315H202.347V28.2434H213.813V45.6783H210.466V31.3315Z" fill="black"/>
<path d="M250.511 10.4224V45.6783H246.669V29.4657H225.039V45.6783H221.197V10.4224H225.039V25.7986H246.669V10.4224H250.511Z" fill="black"/>
<path d="M285.938 14.0252H272.861V45.6783H269.019V14.0252H255.818V10.4224H285.938V14.0252Z" fill="black"/>
<path d="M339.346 0V45.6783H335.069V24.3189H308.977V45.6783H304.639V0H308.977V20.3301H335.069V0H339.346Z" fill="black"/>
<path d="M363.782 45.9357C361.179 45.9357 358.803 45.4424 356.654 44.4559C354.547 43.4266 352.709 42.0755 351.138 40.4028C349.61 38.6872 348.432 36.7786 347.606 34.6769C346.78 32.5324 346.366 30.3235 346.366 28.0503C346.366 25.6914 346.8 23.4611 347.668 21.3594C348.535 19.2149 349.754 17.3063 351.324 15.6336C352.894 13.9608 354.733 12.6527 356.84 11.7091C358.989 10.7226 361.323 10.2294 363.844 10.2294C366.405 10.2294 368.74 10.7441 370.847 11.7734C372.995 12.8028 374.834 14.1753 376.363 15.8909C377.891 17.6065 379.069 19.5366 379.895 21.6811C380.722 23.7828 381.135 25.9273 381.135 28.1147C381.135 30.4737 380.701 32.7254 379.833 34.8699C378.966 37.0145 377.747 38.9231 376.177 40.5958C374.648 42.2256 372.809 43.5338 370.661 44.5203C368.554 45.4639 366.261 45.9357 363.782 45.9357ZM350.271 28.0503C350.271 29.8946 350.581 31.6746 351.2 33.3902C351.862 35.0629 352.791 36.5855 353.989 37.958C355.188 39.2876 356.613 40.3385 358.266 41.1105C359.96 41.8825 361.798 42.2685 363.782 42.2685C365.847 42.2685 367.707 41.8611 369.359 41.0462C371.012 40.2312 372.417 39.1375 373.574 37.765C374.731 36.3925 375.619 34.8699 376.239 33.1972C376.9 31.5245 377.23 29.8089 377.23 28.0503C377.23 26.2061 376.9 24.4476 376.239 22.7748C375.578 21.0592 374.648 19.5366 373.45 18.207C372.252 16.8774 370.826 15.8266 369.174 15.0545C367.521 14.2825 365.723 13.8965 363.782 13.8965C361.716 13.8965 359.836 14.304 358.142 15.1189C356.489 15.8909 355.064 16.9632 353.865 18.3357C352.709 19.7082 351.82 21.2308 351.2 22.9035C350.581 24.5762 350.271 26.2918 350.271 28.0503Z" fill="black"/>
<path d="M420.515 45.6783V17.6923L407.252 39.2448H405.021L391.696 17.6923V45.6783H387.854V10.4224H391.882L406.137 33.8406L420.391 10.4224H424.42V45.6783H420.515Z" fill="black"/>
<path d="M458.496 42.0755V45.6783H433.52V10.4224H458.001V14.0252H437.363V26.0559H455.398V29.4014H437.363V42.0755H458.496Z" fill="black"/>
<path d="M486.405 17.4993C485.703 16.7702 484.856 16.1268 483.864 15.5692C482.873 14.9688 481.737 14.5184 480.456 14.2182C479.216 13.9179 477.873 13.7678 476.427 13.7678C473.328 13.7678 471.035 14.3254 469.548 15.4406C468.102 16.5128 467.379 18.014 467.379 19.9441C467.379 21.2308 467.73 22.2601 468.432 23.0322C469.176 23.7613 470.292 24.3832 471.779 24.8979C473.266 25.3697 475.167 25.8629 477.481 26.3776C480.043 26.9352 482.253 27.5786 484.112 28.3077C486.013 29.0368 487.459 30.0233 488.451 31.2671C489.484 32.511 490 34.1837 490 36.2853C490 37.958 489.669 39.4163 489.008 40.6601C488.389 41.8611 487.48 42.869 486.281 43.6839C485.083 44.4559 483.678 45.035 482.067 45.421C480.497 45.807 478.741 46 476.799 46C473.948 46 471.283 45.5925 468.804 44.7776C466.325 43.9198 464.073 42.6545 462.049 40.9818L463.97 37.6364C464.879 38.5371 465.974 39.352 467.255 40.0811C468.577 40.7674 470.044 41.3464 471.655 41.8182C473.308 42.2471 475.064 42.4615 476.923 42.4615C479.65 42.4615 481.819 41.9897 483.431 41.0462C485.083 40.0597 485.91 38.6228 485.91 36.7357C485.91 35.3632 485.496 34.248 484.67 33.3902C483.844 32.5324 482.625 31.8462 481.013 31.3315C479.402 30.7739 477.378 30.2378 474.94 29.7231C472.419 29.1226 470.292 28.4793 468.556 27.793C466.862 27.0639 465.581 26.1203 464.714 24.9622C463.846 23.7613 463.412 22.2172 463.412 20.3301C463.412 18.1427 463.97 16.2984 465.086 14.7972C466.201 13.2531 467.751 12.1165 469.734 11.3874C471.717 10.6154 473.969 10.2294 476.489 10.2294C478.927 10.2294 481.117 10.5725 483.059 11.2587C485.001 11.945 486.715 12.9529 488.203 14.2825L486.405 17.4993Z" fill="black"/>
<path d="M6.144 54.744C6.944 54.744 7.552 54.84 7.968 55.032C8.384 55.208 8.752 55.408 9.072 55.632C9.264 55.744 9.416 55.832 9.528 55.896C9.656 55.944 9.776 55.968 9.888 55.968C10.048 55.968 10.16 55.88 10.224 55.704C10.304 55.528 10.368 55.264 10.416 54.912H10.968C10.952 55.184 10.928 55.512 10.896 55.896C10.88 56.264 10.864 56.76 10.848 57.384C10.848 57.992 10.848 58.8 10.848 59.808H10.296C10.248 59.04 10.08 58.304 9.792 57.6C9.504 56.896 9.08 56.32 8.52 55.872C7.976 55.424 7.256 55.2 6.36 55.2C5.512 55.2 4.808 55.456 4.248 55.968C3.704 56.48 3.432 57.152 3.432 57.984C3.432 58.704 3.616 59.312 3.984 59.808C4.352 60.288 4.84 60.728 5.448 61.128C6.072 61.512 6.744 61.928 7.464 62.376C8.296 62.888 9.032 63.4 9.672 63.912C10.328 64.408 10.84 64.96 11.208 65.568C11.592 66.176 11.784 66.912 11.784 67.776C11.784 68.8 11.552 69.648 11.088 70.32C10.624 70.992 10.008 71.496 9.24 71.832C8.472 72.168 7.624 72.336 6.696 72.336C5.848 72.336 5.176 72.24 4.68 72.048C4.184 71.856 3.76 71.656 3.408 71.448C3.056 71.224 2.784 71.112 2.592 71.112C2.432 71.112 2.312 71.2 2.232 71.376C2.168 71.552 2.112 71.816 2.064 72.168H1.512C1.544 71.832 1.56 71.44 1.56 70.992C1.576 70.528 1.584 69.928 1.584 69.192C1.6 68.456 1.608 67.528 1.608 66.408H2.16C2.224 67.368 2.4 68.264 2.688 69.096C2.992 69.928 3.448 70.6 4.056 71.112C4.68 71.608 5.504 71.856 6.528 71.856C7.056 71.856 7.552 71.752 8.016 71.544C8.496 71.32 8.888 70.976 9.192 70.512C9.496 70.032 9.648 69.416 9.648 68.664C9.648 68.008 9.488 67.44 9.168 66.96C8.864 66.464 8.432 66.008 7.872 65.592C7.312 65.16 6.656 64.72 5.904 64.272C5.152 63.808 4.448 63.336 3.792 62.856C3.136 62.376 2.608 61.824 2.208 61.2C1.824 60.56 1.632 59.792 1.632 58.896C1.632 57.952 1.84 57.176 2.256 56.568C2.688 55.944 3.248 55.488 3.936 55.2C4.624 54.896 5.36 54.744 6.144 54.744ZM16.5849 72.168C15.9289 72.168 15.3609 72.048 14.8809 71.808C14.4009 71.552 14.0329 71.2 13.7769 70.752C13.5369 70.304 13.4169 69.784 13.4169 69.192C13.4169 68.488 13.5769 67.912 13.8969 67.464C14.2329 67.016 14.6569 66.656 15.1689 66.384C15.6809 66.112 16.2169 65.888 16.7769 65.712C17.3529 65.52 17.8969 65.344 18.4089 65.184C18.9209 65.008 19.3369 64.808 19.6569 64.584C19.9929 64.36 20.1609 64.064 20.1609 63.696V62.208C20.1609 61.536 20.0569 61.024 19.8489 60.672C19.6569 60.32 19.3929 60.088 19.0569 59.976C18.7209 59.848 18.3449 59.784 17.9289 59.784C17.5289 59.784 17.0969 59.84 16.6329 59.952C16.1849 60.064 15.8249 60.296 15.5529 60.648C15.8569 60.712 16.1209 60.872 16.3449 61.128C16.5689 61.384 16.6809 61.712 16.6809 62.112C16.6809 62.512 16.5529 62.832 16.2969 63.072C16.0409 63.296 15.7129 63.408 15.3129 63.408C14.8489 63.408 14.5049 63.264 14.2809 62.976C14.0729 62.672 13.9689 62.336 13.9689 61.968C13.9689 61.552 14.0729 61.216 14.2809 60.96C14.4889 60.704 14.7529 60.464 15.0729 60.24C15.4409 59.984 15.9129 59.768 16.4889 59.592C17.0809 59.4 17.7449 59.304 18.4809 59.304C19.1369 59.304 19.6969 59.384 20.1609 59.544C20.6249 59.688 21.0089 59.904 21.3129 60.192C21.7289 60.576 22.0009 61.048 22.1289 61.608C22.2569 62.152 22.3209 62.808 22.3209 63.576V70.248C22.3209 70.648 22.3769 70.936 22.4889 71.112C22.6169 71.288 22.8089 71.376 23.0649 71.376C23.2409 71.376 23.4089 71.336 23.5689 71.256C23.7289 71.176 23.9209 71.048 24.1449 70.872L24.4089 71.28C24.0729 71.536 23.7529 71.752 23.4489 71.928C23.1449 72.088 22.7369 72.168 22.2249 72.168C21.7609 72.168 21.3769 72.088 21.0729 71.928C20.7689 71.768 20.5369 71.536 20.3769 71.232C20.2329 70.912 20.1609 70.512 20.1609 70.032C19.7289 70.752 19.2089 71.288 18.6009 71.64C18.0089 71.992 17.3369 72.168 16.5849 72.168ZM17.4489 71.208C17.9769 71.208 18.4649 71.056 18.9129 70.752C19.3769 70.448 19.7929 69.992 20.1609 69.384V64.68C19.9689 64.952 19.6889 65.184 19.3209 65.376C18.9529 65.552 18.5529 65.736 18.1209 65.928C17.6889 66.104 17.2729 66.32 16.8729 66.576C16.4889 66.816 16.1689 67.136 15.9129 67.536C15.6569 67.936 15.5289 68.456 15.5289 69.096C15.5289 69.736 15.6969 70.248 16.0329 70.632C16.3849 71.016 16.8569 71.208 17.4489 71.208ZM28.4661 53.184V69.768C28.4661 70.44 28.6021 70.896 28.8741 71.136C29.1621 71.376 29.6341 71.496 30.2901 71.496V72C30.0181 71.984 29.6021 71.968 29.0421 71.952C28.4981 71.92 27.9461 71.904 27.3861 71.904C26.8421 71.904 26.2901 71.92 25.7301 71.952C25.1701 71.968 24.7541 71.984 24.4821 72V71.496C25.1381 71.496 25.6021 71.376 25.8741 71.136C26.1621 70.896 26.3061 70.44 26.3061 69.768V56.064C26.3061 55.344 26.1781 54.816 25.9221 54.48C25.6661 54.128 25.1861 53.952 24.4821 53.952V53.448C24.9941 53.496 25.4901 53.52 25.9701 53.52C26.4341 53.52 26.8741 53.496 27.2901 53.448C27.7221 53.384 28.1141 53.296 28.4661 53.184ZM36.6349 59.304C38.0429 59.304 39.1389 59.736 39.9229 60.6C40.7229 61.448 41.1229 62.776 41.1229 64.584H32.6509L32.6269 64.128H38.8189C38.8509 63.344 38.7869 62.624 38.6269 61.968C38.4669 61.296 38.2109 60.76 37.8589 60.36C37.5229 59.96 37.0829 59.76 36.5389 59.76C35.8029 59.76 35.1469 60.128 34.5709 60.864C34.0109 61.6 33.6749 62.768 33.5629 64.368L33.6349 64.464C33.6029 64.704 33.5789 64.968 33.5629 65.256C33.5469 65.544 33.5389 65.832 33.5389 66.12C33.5389 67.208 33.7149 68.144 34.0669 68.928C34.4189 69.712 34.8749 70.312 35.4349 70.728C36.0109 71.128 36.6029 71.328 37.2109 71.328C37.6909 71.328 38.1469 71.256 38.5789 71.112C39.0109 70.952 39.4109 70.696 39.7789 70.344C40.1469 69.992 40.4669 69.52 40.7389 68.928L41.2189 69.12C41.0429 69.648 40.7549 70.16 40.3549 70.656C39.9549 71.152 39.4509 71.56 38.8429 71.88C38.2349 72.184 37.5309 72.336 36.7309 72.336C35.5789 72.336 34.5869 72.072 33.7549 71.544C32.9389 71.016 32.3069 70.288 31.8589 69.36C31.4269 68.416 31.2109 67.336 31.2109 66.12C31.2109 64.712 31.4349 63.504 31.8829 62.496C32.3309 61.472 32.9629 60.688 33.7789 60.144C34.5949 59.584 35.5469 59.304 36.6349 59.304ZM46.7595 59.304C47.3995 59.304 47.9435 59.408 48.3915 59.616C48.8395 59.824 49.1675 60.016 49.3755 60.192C49.9035 60.624 50.2235 60.336 50.3355 59.328H50.8875C50.8555 59.776 50.8315 60.312 50.8155 60.936C50.7995 61.544 50.7915 62.368 50.7915 63.408H50.2395C50.1435 62.816 49.9755 62.24 49.7355 61.68C49.5115 61.12 49.1755 60.664 48.7275 60.312C48.2795 59.944 47.6955 59.76 46.9755 59.76C46.4155 59.76 45.9435 59.92 45.5595 60.24C45.1915 60.544 45.0075 61 45.0075 61.608C45.0075 62.088 45.1515 62.504 45.4395 62.856C45.7275 63.192 46.1035 63.512 46.5675 63.816C47.0315 64.104 47.5355 64.424 48.0795 64.776C48.6875 65.16 49.2395 65.552 49.7355 65.952C50.2315 66.352 50.6235 66.792 50.9115 67.272C51.2155 67.752 51.3675 68.32 51.3675 68.976C51.3675 69.712 51.1755 70.328 50.7915 70.824C50.4075 71.32 49.9035 71.696 49.2795 71.952C48.6715 72.208 47.9995 72.336 47.2635 72.336C46.9115 72.336 46.5755 72.304 46.2555 72.24C45.9515 72.192 45.6555 72.112 45.3675 72C45.2075 71.92 45.0395 71.824 44.8635 71.712C44.7035 71.6 44.5435 71.48 44.3835 71.352C44.2235 71.224 44.0795 71.232 43.9515 71.376C43.8235 71.504 43.7275 71.768 43.6635 72.168H43.1115C43.1435 71.656 43.1675 71.032 43.1835 70.296C43.1995 69.56 43.2075 68.584 43.2075 67.368H43.7595C43.8715 68.264 44.0315 69.048 44.2395 69.72C44.4475 70.392 44.7755 70.92 45.2235 71.304C45.6715 71.672 46.2955 71.856 47.0955 71.856C47.4155 71.856 47.7355 71.784 48.0555 71.64C48.3915 71.496 48.6715 71.256 48.8955 70.92C49.1195 70.584 49.2315 70.136 49.2315 69.576C49.2315 68.872 48.9755 68.296 48.4635 67.848C47.9515 67.4 47.3035 66.928 46.5195 66.432C45.9435 66.064 45.3995 65.696 44.8875 65.328C44.3915 64.96 43.9835 64.544 43.6635 64.08C43.3595 63.616 43.2075 63.056 43.2075 62.4C43.2075 61.68 43.3675 61.096 43.6875 60.648C44.0235 60.184 44.4635 59.848 45.0075 59.64C45.5515 59.416 46.1355 59.304 46.7595 59.304ZM64.8864 55.152C65.4944 55.152 65.9984 55.224 66.3984 55.368C66.7984 55.496 67.1264 55.664 67.3824 55.872C67.5904 56.032 67.7584 56.208 67.8864 56.4C68.0144 56.592 68.1104 56.784 68.1744 56.976C68.2384 57.168 68.2704 57.352 68.2704 57.528C68.2704 57.928 68.1264 58.24 67.8384 58.464C67.5664 58.688 67.2624 58.8 66.9264 58.8C66.6064 58.8 66.3184 58.696 66.0624 58.488C65.8064 58.28 65.6784 57.984 65.6784 57.6C65.6784 57.248 65.7984 56.952 66.0384 56.712C66.2784 56.456 66.5824 56.312 66.9504 56.28C66.8864 56.072 66.6864 55.896 66.3504 55.752C66.0304 55.592 65.6224 55.512 65.1264 55.512C64.3104 55.512 63.6384 55.76 63.1104 56.256C62.5984 56.736 62.3424 57.44 62.3424 58.368C62.3424 58.816 62.4224 59.272 62.5824 59.736C62.7584 60.2 63.0864 60.656 63.5664 61.104C63.8384 61.056 64.1184 61.024 64.4064 61.008C64.6944 60.976 64.9104 60.96 65.0544 60.96C65.3424 60.96 65.5744 61.008 65.7504 61.104C65.9264 61.2 66.0144 61.336 66.0144 61.512C66.0144 61.656 65.9504 61.768 65.8224 61.848C65.7104 61.928 65.5504 61.968 65.3424 61.968C65.0384 61.968 64.7184 61.904 64.3824 61.776C64.0464 61.632 63.7824 61.52 63.5904 61.44C62.6624 61.712 61.9104 62.16 61.3344 62.784C60.7584 63.392 60.4704 64.256 60.4704 65.376C60.4704 66.48 60.7584 67.416 61.3344 68.184C61.9104 68.952 62.6784 69.544 63.6384 69.96C64.6144 70.36 65.7024 70.56 66.9024 70.56C67.7504 70.56 68.5504 70.464 69.3024 70.272C70.0704 70.064 70.7424 69.768 71.3184 69.384C71.9104 69 72.3744 68.544 72.7104 68.016C73.0464 67.472 73.2144 66.856 73.2144 66.168C73.2144 65.864 73.1504 65.48 73.0224 65.016C72.8944 64.536 72.6304 64.072 72.2304 63.624C71.8304 63.16 71.2144 62.8 70.3824 62.544L70.6704 62.304C71.8384 62.656 72.6704 63.224 73.1664 64.008C73.6624 64.776 73.9104 65.64 73.9104 66.6C73.9104 67.56 73.6224 68.48 73.0464 69.36C72.4704 70.24 71.6384 70.96 70.5504 71.52C69.4624 72.064 68.1424 72.336 66.5904 72.336C65.5504 72.336 64.5584 72.2 63.6144 71.928C62.6864 71.656 61.8624 71.264 61.1424 70.752C60.4224 70.224 59.8544 69.592 59.4384 68.856C59.0224 68.12 58.8144 67.288 58.8144 66.36C58.8144 65.496 58.9824 64.76 59.3184 64.152C59.6544 63.528 60.0704 63.016 60.5664 62.616C61.0624 62.216 61.5584 61.912 62.0544 61.704C62.5504 61.48 62.9504 61.328 63.2544 61.248C62.7264 61.008 62.2784 60.728 61.9104 60.408C61.5584 60.072 61.2864 59.712 61.0944 59.328C60.9184 58.928 60.8304 58.536 60.8304 58.152C60.8304 57.768 60.9184 57.4 61.0944 57.048C61.2704 56.68 61.5264 56.352 61.8624 56.064C62.1984 55.776 62.6144 55.552 63.1104 55.392C63.6224 55.232 64.2144 55.152 64.8864 55.152ZM73.6224 54.672C74.6144 54.672 75.4464 54.96 76.1184 55.536C76.7904 56.096 77.1264 56.888 77.1264 57.912C77.1264 58.456 77.0224 58.944 76.8144 59.376C76.6224 59.792 76.3504 60.16 75.9984 60.48C75.6624 60.8 75.2784 61.064 74.8464 61.272C74.4784 61.448 73.9904 61.64 73.3824 61.848C72.7904 62.056 72.1504 62.264 71.4624 62.472C70.7904 62.68 70.1424 62.888 69.5184 63.096C68.9104 63.288 68.4144 63.456 68.0304 63.6C67.4384 63.824 66.9344 64.104 66.5184 64.44C66.1184 64.76 65.9184 65.176 65.9184 65.688C65.9184 66.104 66.0384 66.456 66.2784 66.744C66.5184 67.032 66.8064 67.248 67.1424 67.392C67.4944 67.536 67.8224 67.608 68.1264 67.608C68.2704 67.608 68.4464 67.592 68.6544 67.56C68.8784 67.512 69.0784 67.448 69.2544 67.368C69.4304 67.288 69.5344 67.192 69.5664 67.08C69.3104 67.032 69.0544 66.92 68.7984 66.744C68.5584 66.552 68.4384 66.256 68.4384 65.856C68.4384 65.472 68.5664 65.168 68.8224 64.944C69.0784 64.72 69.3904 64.608 69.7584 64.608C70.1424 64.608 70.4464 64.728 70.6704 64.968C70.9104 65.208 71.0304 65.52 71.0304 65.904C71.0304 66.352 70.8784 66.736 70.5744 67.056C70.2864 67.36 69.9184 67.592 69.4704 67.752C69.0384 67.896 68.6064 67.968 68.1744 67.968C67.7264 67.968 67.2704 67.872 66.8064 67.68C66.3424 67.488 65.9584 67.192 65.6544 66.792C65.3504 66.376 65.1984 65.832 65.1984 65.16C65.1984 64.6 65.3184 64.104 65.5584 63.672C65.8144 63.24 66.1904 62.856 66.6864 62.52C67.1824 62.184 67.7904 61.896 68.5104 61.656C68.9904 61.496 69.5744 61.32 70.2624 61.128C70.9504 60.936 71.6544 60.728 72.3744 60.504C73.1104 60.28 73.7744 60.032 74.3664 59.76C75.1664 59.392 75.7104 59.016 75.9984 58.632C76.2864 58.248 76.4304 57.856 76.4304 57.456C76.4304 56.992 76.3024 56.584 76.0464 56.232C75.7904 55.864 75.4464 55.576 75.0144 55.368C74.5984 55.144 74.1424 55.032 73.6464 55.032C73.4544 55.032 73.2944 55.048 73.1664 55.08C73.0384 55.112 72.9584 55.168 72.9264 55.248C73.1504 55.36 73.3184 55.52 73.4304 55.728C73.5424 55.936 73.5984 56.144 73.5984 56.352C73.5984 56.688 73.4624 56.968 73.1904 57.192C72.9344 57.416 72.6224 57.528 72.2544 57.528C71.9504 57.528 71.6624 57.432 71.3904 57.24C71.1184 57.032 70.9824 56.728 70.9824 56.328C70.9824 55.912 71.1184 55.584 71.3904 55.344C71.6784 55.104 72.0224 54.936 72.4224 54.84C72.8384 54.728 73.2384 54.672 73.6224 54.672ZM83.6289 55.008C83.9649 55.024 84.4049 55.04 84.9489 55.056C85.4929 55.072 86.0289 55.08 86.5569 55.08C87.3089 55.08 88.0289 55.072 88.7169 55.056C89.4049 55.04 89.8929 55.032 90.1809 55.032C91.4769 55.032 92.5489 55.216 93.3969 55.584C94.2609 55.952 94.9009 56.456 95.3169 57.096C95.7489 57.72 95.9649 58.424 95.9649 59.208C95.9649 59.688 95.8689 60.2 95.6769 60.744C95.4849 61.288 95.1489 61.8 94.6689 62.28C94.2049 62.76 93.5649 63.16 92.7489 63.48C91.9329 63.784 90.9009 63.936 89.6529 63.936H87.3489V63.456H89.4129C90.5489 63.456 91.4129 63.28 92.0049 62.928C92.6129 62.56 93.0209 62.08 93.2289 61.488C93.4529 60.88 93.5649 60.208 93.5649 59.472C93.5649 58.208 93.2609 57.232 92.6529 56.544C92.0609 55.84 91.0369 55.488 89.5809 55.488C88.8449 55.488 88.3649 55.624 88.1409 55.896C87.9169 56.168 87.8049 56.72 87.8049 57.552V69.456C87.8049 70.032 87.8529 70.464 87.9489 70.752C88.0449 71.04 88.2289 71.232 88.5009 71.328C88.7889 71.424 89.2049 71.488 89.7489 71.52V72C89.3809 71.968 88.9169 71.952 88.3569 71.952C87.8129 71.936 87.2609 71.928 86.7009 71.928C86.0769 71.928 85.4929 71.936 84.9489 71.952C84.4049 71.952 83.9649 71.968 83.6289 72V71.52C84.1729 71.488 84.5809 71.424 84.8529 71.328C85.1409 71.232 85.3329 71.04 85.4289 70.752C85.5249 70.464 85.5729 70.032 85.5729 69.456V57.552C85.5729 56.96 85.5249 56.528 85.4289 56.256C85.3329 55.968 85.1409 55.776 84.8529 55.68C84.5809 55.568 84.1729 55.504 83.6289 55.488V55.008ZM87.4449 63.528C88.3089 63.56 88.9889 63.6 89.4849 63.648C89.9809 63.68 90.3809 63.712 90.6849 63.744C91.0049 63.776 91.3089 63.816 91.5969 63.864C92.6689 64.04 93.4369 64.368 93.9009 64.848C94.3809 65.312 94.7329 66.04 94.9569 67.032L95.5569 69.48C95.7169 70.184 95.8769 70.696 96.0369 71.016C96.2129 71.32 96.4769 71.464 96.8289 71.448C97.1009 71.432 97.3249 71.344 97.5009 71.184C97.6929 71.024 97.8929 70.808 98.1009 70.536L98.4609 70.8C98.1249 71.296 97.7729 71.68 97.4049 71.952C97.0529 72.208 96.5489 72.336 95.8929 72.336C95.3009 72.336 94.7809 72.16 94.3329 71.808C93.8849 71.456 93.5489 70.768 93.3249 69.744L92.7969 67.344C92.6529 66.656 92.4849 66.064 92.2929 65.568C92.1169 65.056 91.8609 64.656 91.5249 64.368C91.2049 64.08 90.7249 63.936 90.0849 63.936H87.4929L87.4449 63.528ZM104.231 59.304C105.639 59.304 106.735 59.736 107.519 60.6C108.319 61.448 108.719 62.776 108.719 64.584H100.247L100.223 64.128H106.415C106.447 63.344 106.383 62.624 106.223 61.968C106.063 61.296 105.807 60.76 105.455 60.36C105.119 59.96 104.679 59.76 104.135 59.76C103.399 59.76 102.743 60.128 102.167 60.864C101.607 61.6 101.271 62.768 101.159 64.368L101.231 64.464C101.199 64.704 101.175 64.968 101.159 65.256C101.143 65.544 101.135 65.832 101.135 66.12C101.135 67.208 101.311 68.144 101.663 68.928C102.015 69.712 102.471 70.312 103.031 70.728C103.607 71.128 104.199 71.328 104.807 71.328C105.287 71.328 105.743 71.256 106.175 71.112C106.607 70.952 107.007 70.696 107.375 70.344C107.743 69.992 108.063 69.52 108.335 68.928L108.815 69.12C108.639 69.648 108.351 70.16 107.951 70.656C107.551 71.152 107.047 71.56 106.439 71.88C105.831 72.184 105.127 72.336 104.327 72.336C103.175 72.336 102.183 72.072 101.351 71.544C100.535 71.016 99.9034 70.288 99.4554 69.36C99.0234 68.416 98.8074 67.336 98.8074 66.12C98.8074 64.712 99.0314 63.504 99.4794 62.496C99.9274 61.472 100.559 60.688 101.375 60.144C102.191 59.584 103.143 59.304 104.231 59.304ZM118.124 59.304C118.732 59.304 119.236 59.384 119.636 59.544C120.052 59.704 120.396 59.928 120.668 60.216C120.972 60.536 121.188 60.936 121.316 61.416C121.444 61.896 121.508 62.544 121.508 63.36V69.768C121.508 70.44 121.644 70.896 121.916 71.136C122.204 71.376 122.676 71.496 123.332 71.496V72C123.06 71.984 122.644 71.968 122.084 71.952C121.524 71.92 120.98 71.904 120.452 71.904C119.924 71.904 119.404 71.92 118.892 71.952C118.396 71.968 118.02 71.984 117.764 72V71.496C118.34 71.496 118.748 71.376 118.988 71.136C119.228 70.896 119.348 70.44 119.348 69.768V62.832C119.348 62.336 119.308 61.88 119.228 61.464C119.148 61.048 118.964 60.712 118.676 60.456C118.404 60.2 117.98 60.072 117.404 60.072C116.732 60.072 116.14 60.264 115.628 60.648C115.132 61.032 114.74 61.56 114.452 62.232C114.18 62.888 114.044 63.624 114.044 64.44V69.768C114.044 70.44 114.164 70.896 114.404 71.136C114.644 71.376 115.052 71.496 115.628 71.496V72C115.372 71.984 114.988 71.968 114.476 71.952C113.98 71.92 113.468 71.904 112.94 71.904C112.412 71.904 111.868 71.92 111.308 71.952C110.748 71.968 110.332 71.984 110.06 72V71.496C110.716 71.496 111.18 71.376 111.452 71.136C111.74 70.896 111.884 70.44 111.884 69.768V62.256C111.884 61.536 111.756 61.008 111.5 60.672C111.244 60.32 110.764 60.144 110.06 60.144V59.64C110.572 59.688 111.068 59.712 111.548 59.712C112.012 59.712 112.452 59.688 112.868 59.64C113.3 59.576 113.692 59.488 114.044 59.376V62.208C114.46 61.12 115.036 60.368 115.772 59.952C116.524 59.52 117.308 59.304 118.124 59.304ZM127.764 55.656V59.664H131.316V60.144H127.764V69.432C127.764 70.184 127.9 70.712 128.172 71.016C128.444 71.32 128.82 71.472 129.3 71.472C129.78 71.472 130.196 71.28 130.548 70.896C130.9 70.496 131.204 69.832 131.46 68.904L131.94 69.024C131.78 69.952 131.46 70.736 130.98 71.376C130.516 72.016 129.796 72.336 128.82 72.336C128.276 72.336 127.828 72.264 127.476 72.12C127.124 71.992 126.812 71.8 126.54 71.544C126.188 71.176 125.94 70.736 125.796 70.224C125.668 69.712 125.604 69.032 125.604 68.184V60.144H123.3V59.664H125.604V55.992C126.004 55.976 126.388 55.944 126.756 55.896C127.124 55.848 127.46 55.768 127.764 55.656ZM135.313 72.168C134.657 72.168 134.089 72.048 133.609 71.808C133.129 71.552 132.761 71.2 132.505 70.752C132.265 70.304 132.145 69.784 132.145 69.192C132.145 68.488 132.305 67.912 132.625 67.464C132.961 67.016 133.385 66.656 133.897 66.384C134.409 66.112 134.945 65.888 135.505 65.712C136.081 65.52 136.625 65.344 137.137 65.184C137.649 65.008 138.065 64.808 138.385 64.584C138.721 64.36 138.889 64.064 138.889 63.696V62.208C138.889 61.536 138.785 61.024 138.577 60.672C138.385 60.32 138.121 60.088 137.785 59.976C137.449 59.848 137.073 59.784 136.657 59.784C136.257 59.784 135.825 59.84 135.361 59.952C134.913 60.064 134.553 60.296 134.281 60.648C134.585 60.712 134.849 60.872 135.073 61.128C135.297 61.384 135.409 61.712 135.409 62.112C135.409 62.512 135.281 62.832 135.025 63.072C134.769 63.296 134.441 63.408 134.041 63.408C133.577 63.408 133.233 63.264 133.009 62.976C132.801 62.672 132.697 62.336 132.697 61.968C132.697 61.552 132.801 61.216 133.009 60.96C133.217 60.704 133.481 60.464 133.801 60.24C134.169 59.984 134.641 59.768 135.217 59.592C135.809 59.4 136.473 59.304 137.209 59.304C137.865 59.304 138.425 59.384 138.889 59.544C139.353 59.688 139.737 59.904 140.041 60.192C140.457 60.576 140.729 61.048 140.857 61.608C140.985 62.152 141.049 62.808 141.049 63.576V70.248C141.049 70.648 141.105 70.936 141.217 71.112C141.345 71.288 141.537 71.376 141.793 71.376C141.969 71.376 142.137 71.336 142.297 71.256C142.457 71.176 142.649 71.048 142.873 70.872L143.137 71.28C142.801 71.536 142.481 71.752 142.177 71.928C141.873 72.088 141.465 72.168 140.953 72.168C140.489 72.168 140.105 72.088 139.801 71.928C139.497 71.768 139.265 71.536 139.105 71.232C138.961 70.912 138.889 70.512 138.889 70.032C138.457 70.752 137.937 71.288 137.329 71.64C136.737 71.992 136.065 72.168 135.313 72.168ZM136.177 71.208C136.705 71.208 137.193 71.056 137.641 70.752C138.105 70.448 138.521 69.992 138.889 69.384V64.68C138.697 64.952 138.417 65.184 138.049 65.376C137.681 65.552 137.281 65.736 136.849 65.928C136.417 66.104 136.001 66.32 135.601 66.576C135.217 66.816 134.897 67.136 134.641 67.536C134.385 67.936 134.257 68.456 134.257 69.096C134.257 69.736 134.425 70.248 134.761 70.632C135.113 71.016 135.585 71.208 136.177 71.208ZM147.194 53.184V69.768C147.194 70.44 147.33 70.896 147.602 71.136C147.89 71.376 148.362 71.496 149.018 71.496V72C148.746 71.984 148.33 71.968 147.77 71.952C147.226 71.92 146.674 71.904 146.114 71.904C145.57 71.904 145.018 71.92 144.458 71.952C143.898 71.968 143.482 71.984 143.21 72V71.496C143.866 71.496 144.33 71.376 144.602 71.136C144.89 70.896 145.034 70.44 145.034 69.768V56.064C145.034 55.344 144.906 54.816 144.65 54.48C144.394 54.128 143.914 53.952 143.21 53.952V53.448C143.722 53.496 144.218 53.52 144.698 53.52C145.162 53.52 145.602 53.496 146.018 53.448C146.45 53.384 146.842 53.296 147.194 53.184ZM154.061 59.304C154.701 59.304 155.245 59.408 155.693 59.616C156.141 59.824 156.469 60.016 156.677 60.192C157.205 60.624 157.525 60.336 157.637 59.328H158.189C158.157 59.776 158.133 60.312 158.117 60.936C158.101 61.544 158.093 62.368 158.093 63.408H157.541C157.445 62.816 157.277 62.24 157.037 61.68C156.813 61.12 156.477 60.664 156.029 60.312C155.581 59.944 154.997 59.76 154.277 59.76C153.717 59.76 153.245 59.92 152.861 60.24C152.493 60.544 152.309 61 152.309 61.608C152.309 62.088 152.453 62.504 152.741 62.856C153.029 63.192 153.405 63.512 153.869 63.816C154.333 64.104 154.837 64.424 155.381 64.776C155.989 65.16 156.541 65.552 157.037 65.952C157.533 66.352 157.925 66.792 158.213 67.272C158.517 67.752 158.669 68.32 158.669 68.976C158.669 69.712 158.477 70.328 158.093 70.824C157.709 71.32 157.205 71.696 156.581 71.952C155.973 72.208 155.301 72.336 154.565 72.336C154.213 72.336 153.877 72.304 153.557 72.24C153.253 72.192 152.957 72.112 152.669 72C152.509 71.92 152.341 71.824 152.165 71.712C152.005 71.6 151.845 71.48 151.685 71.352C151.525 71.224 151.381 71.232 151.253 71.376C151.125 71.504 151.029 71.768 150.965 72.168H150.413C150.445 71.656 150.469 71.032 150.485 70.296C150.501 69.56 150.509 68.584 150.509 67.368H151.061C151.173 68.264 151.333 69.048 151.541 69.72C151.749 70.392 152.077 70.92 152.525 71.304C152.973 71.672 153.597 71.856 154.397 71.856C154.717 71.856 155.037 71.784 155.357 71.64C155.693 71.496 155.973 71.256 156.197 70.92C156.421 70.584 156.533 70.136 156.533 69.576C156.533 68.872 156.277 68.296 155.765 67.848C155.253 67.4 154.605 66.928 153.821 66.432C153.245 66.064 152.701 65.696 152.189 65.328C151.693 64.96 151.285 64.544 150.965 64.08C150.661 63.616 150.509 63.056 150.509 62.4C150.509 61.68 150.669 61.096 150.989 60.648C151.325 60.184 151.765 59.848 152.309 59.64C152.853 59.416 153.437 59.304 154.061 59.304ZM171.948 55.008V55.488C171.404 55.504 170.988 55.568 170.7 55.68C170.428 55.776 170.244 55.968 170.148 56.256C170.052 56.528 170.004 56.96 170.004 57.552V69.456C170.004 70.032 170.052 70.464 170.148 70.752C170.244 71.04 170.428 71.232 170.7 71.328C170.988 71.424 171.404 71.488 171.948 71.52V72C171.58 71.968 171.116 71.952 170.556 71.952C170.012 71.936 169.46 71.928 168.9 71.928C168.276 71.928 167.692 71.936 167.148 71.952C166.604 71.952 166.164 71.968 165.828 72V71.52C166.372 71.488 166.78 71.424 167.052 71.328C167.34 71.232 167.532 71.04 167.628 70.752C167.724 70.464 167.772 70.032 167.772 69.456V57.552C167.772 56.96 167.724 56.528 167.628 56.256C167.532 55.968 167.34 55.776 167.052 55.68C166.78 55.568 166.372 55.504 165.828 55.488V55.008C166.164 55.024 166.604 55.04 167.148 55.056C167.692 55.072 168.276 55.08 168.9 55.08C169.46 55.08 170.012 55.072 170.556 55.056C171.116 55.04 171.58 55.024 171.948 55.008ZM181.233 59.304C181.841 59.304 182.345 59.384 182.745 59.544C183.161 59.704 183.505 59.928 183.777 60.216C184.081 60.536 184.297 60.936 184.425 61.416C184.553 61.896 184.617 62.544 184.617 63.36V69.768C184.617 70.44 184.753 70.896 185.025 71.136C185.313 71.376 185.785 71.496 186.441 71.496V72C186.169 71.984 185.753 71.968 185.193 71.952C184.633 71.92 184.089 71.904 183.561 71.904C183.033 71.904 182.513 71.92 182.001 71.952C181.505 71.968 181.129 71.984 180.873 72V71.496C181.449 71.496 181.857 71.376 182.097 71.136C182.337 70.896 182.457 70.44 182.457 69.768V62.832C182.457 62.336 182.417 61.88 182.337 61.464C182.257 61.048 182.073 60.712 181.785 60.456C181.513 60.2 181.089 60.072 180.513 60.072C179.841 60.072 179.249 60.264 178.737 60.648C178.241 61.032 177.849 61.56 177.561 62.232C177.289 62.888 177.153 63.624 177.153 64.44V69.768C177.153 70.44 177.273 70.896 177.513 71.136C177.753 71.376 178.161 71.496 178.737 71.496V72C178.481 71.984 178.097 71.968 177.585 71.952C177.089 71.92 176.577 71.904 176.049 71.904C175.521 71.904 174.977 71.92 174.417 71.952C173.857 71.968 173.441 71.984 173.169 72V71.496C173.825 71.496 174.289 71.376 174.561 71.136C174.849 70.896 174.993 70.44 174.993 69.768V62.256C174.993 61.536 174.865 61.008 174.609 60.672C174.353 60.32 173.873 60.144 173.169 60.144V59.64C173.681 59.688 174.177 59.712 174.657 59.712C175.121 59.712 175.561 59.688 175.977 59.64C176.409 59.576 176.801 59.488 177.153 59.376V62.208C177.569 61.12 178.145 60.368 178.881 59.952C179.633 59.52 180.417 59.304 181.233 59.304ZM205.432 55.008C205.368 55.616 205.32 56.208 205.288 56.784C205.272 57.344 205.264 57.776 205.264 58.08C205.264 58.464 205.272 58.824 205.288 59.16C205.304 59.496 205.32 59.792 205.336 60.048H204.784C204.672 58.928 204.52 58.048 204.328 57.408C204.136 56.752 203.8 56.28 203.32 55.992C202.84 55.704 202.096 55.56 201.088 55.56H199.792V69.216C199.792 69.856 199.848 70.336 199.96 70.656C200.088 70.976 200.328 71.192 200.68 71.304C201.032 71.416 201.544 71.488 202.216 71.52V72C201.8 71.968 201.272 71.952 200.632 71.952C199.992 71.936 199.344 71.928 198.688 71.928C197.968 71.928 197.288 71.936 196.648 71.952C196.024 71.952 195.52 71.968 195.136 72V71.52C195.808 71.488 196.32 71.416 196.672 71.304C197.024 71.192 197.256 70.976 197.368 70.656C197.496 70.336 197.56 69.856 197.56 69.216V55.56H196.264C195.272 55.56 194.528 55.704 194.032 55.992C193.552 56.28 193.216 56.752 193.024 57.408C192.832 58.048 192.68 58.928 192.568 60.048H192.016C192.048 59.792 192.064 59.496 192.064 59.16C192.08 58.824 192.088 58.464 192.088 58.08C192.088 57.776 192.072 57.344 192.04 56.784C192.024 56.208 191.984 55.616 191.92 55.008C192.592 55.024 193.32 55.04 194.104 55.056C194.904 55.072 195.704 55.08 196.504 55.08C197.304 55.08 198.032 55.08 198.688 55.08C199.344 55.08 200.064 55.08 200.848 55.08C201.648 55.08 202.448 55.072 203.248 55.056C204.048 55.04 204.776 55.024 205.432 55.008ZM209.426 72.168C208.77 72.168 208.202 72.048 207.722 71.808C207.242 71.552 206.874 71.2 206.618 70.752C206.378 70.304 206.258 69.784 206.258 69.192C206.258 68.488 206.418 67.912 206.738 67.464C207.074 67.016 207.498 66.656 208.01 66.384C208.522 66.112 209.058 65.888 209.618 65.712C210.194 65.52 210.738 65.344 211.25 65.184C211.762 65.008 212.178 64.808 212.498 64.584C212.834 64.36 213.002 64.064 213.002 63.696V62.208C213.002 61.536 212.898 61.024 212.69 60.672C212.498 60.32 212.234 60.088 211.898 59.976C211.562 59.848 211.186 59.784 210.77 59.784C210.37 59.784 209.938 59.84 209.474 59.952C209.026 60.064 208.666 60.296 208.394 60.648C208.698 60.712 208.962 60.872 209.186 61.128C209.41 61.384 209.522 61.712 209.522 62.112C209.522 62.512 209.394 62.832 209.138 63.072C208.882 63.296 208.554 63.408 208.154 63.408C207.69 63.408 207.346 63.264 207.122 62.976C206.914 62.672 206.81 62.336 206.81 61.968C206.81 61.552 206.914 61.216 207.122 60.96C207.33 60.704 207.594 60.464 207.914 60.24C208.282 59.984 208.754 59.768 209.33 59.592C209.922 59.4 210.586 59.304 211.322 59.304C211.978 59.304 212.538 59.384 213.002 59.544C213.466 59.688 213.85 59.904 214.154 60.192C214.57 60.576 214.842 61.048 214.97 61.608C215.098 62.152 215.162 62.808 215.162 63.576V70.248C215.162 70.648 215.218 70.936 215.33 71.112C215.458 71.288 215.65 71.376 215.906 71.376C216.082 71.376 216.25 71.336 216.41 71.256C216.57 71.176 216.762 71.048 216.986 70.872L217.25 71.28C216.914 71.536 216.594 71.752 216.29 71.928C215.986 72.088 215.578 72.168 215.066 72.168C214.602 72.168 214.218 72.088 213.914 71.928C213.61 71.768 213.378 71.536 213.218 71.232C213.074 70.912 213.002 70.512 213.002 70.032C212.57 70.752 212.05 71.288 211.442 71.64C210.85 71.992 210.178 72.168 209.426 72.168ZM210.29 71.208C210.818 71.208 211.306 71.056 211.754 70.752C212.218 70.448 212.634 69.992 213.002 69.384V64.68C212.81 64.952 212.53 65.184 212.162 65.376C211.794 65.552 211.394 65.736 210.962 65.928C210.53 66.104 210.114 66.32 209.714 66.576C209.33 66.816 209.01 67.136 208.754 67.536C208.498 67.936 208.37 68.456 208.37 69.096C208.37 69.736 208.538 70.248 208.874 70.632C209.226 71.016 209.698 71.208 210.29 71.208ZM225.411 59.304C225.971 59.304 226.459 59.384 226.875 59.544C227.291 59.704 227.635 59.928 227.907 60.216C228.211 60.536 228.419 60.952 228.531 61.464C228.643 61.976 228.699 62.608 228.699 63.36V69.768C228.699 70.44 228.835 70.896 229.107 71.136C229.395 71.376 229.867 71.496 230.523 71.496V72C230.251 71.984 229.835 71.968 229.275 71.952C228.715 71.92 228.171 71.904 227.643 71.904C227.115 71.904 226.595 71.92 226.083 71.952C225.587 71.968 225.211 71.984 224.955 72V71.496C225.531 71.496 225.939 71.376 226.179 71.136C226.419 70.896 226.539 70.44 226.539 69.768V62.832C226.539 62.336 226.507 61.88 226.443 61.464C226.379 61.048 226.219 60.712 225.963 60.456C225.707 60.2 225.291 60.072 224.715 60.072C224.091 60.072 223.531 60.264 223.035 60.648C222.555 61.032 222.171 61.56 221.883 62.232C221.611 62.888 221.475 63.624 221.475 64.44V69.768C221.475 70.44 221.595 70.896 221.835 71.136C222.075 71.376 222.483 71.496 223.059 71.496V72C222.803 71.984 222.419 71.968 221.907 71.952C221.411 71.92 220.899 71.904 220.371 71.904C219.843 71.904 219.299 71.92 218.739 71.952C218.179 71.968 217.763 71.984 217.491 72V71.496C218.147 71.496 218.611 71.376 218.883 71.136C219.171 70.896 219.315 70.44 219.315 69.768V62.256C219.315 61.536 219.187 61.008 218.931 60.672C218.675 60.32 218.195 60.144 217.491 60.144V59.64C218.003 59.688 218.499 59.712 218.979 59.712C219.443 59.712 219.883 59.688 220.299 59.64C220.731 59.576 221.123 59.488 221.475 59.376V62.208C221.891 61.168 222.459 60.424 223.179 59.976C223.899 59.528 224.643 59.304 225.411 59.304ZM232.635 59.304C233.195 59.304 233.683 59.384 234.099 59.544C234.515 59.704 234.859 59.928 235.131 60.216C235.435 60.536 235.643 60.952 235.755 61.464C235.867 61.976 235.923 62.608 235.923 63.36V69.768C235.923 70.44 236.059 70.896 236.331 71.136C236.619 71.376 237.091 71.496 237.747 71.496V72C237.475 71.984 237.059 71.968 236.499 71.952C235.939 71.92 235.395 71.904 234.867 71.904C234.339 71.904 233.819 71.92 233.307 71.952C232.811 71.968 232.435 71.984 232.179 72V71.496C232.755 71.496 233.163 71.376 233.403 71.136C233.643 70.896 233.763 70.44 233.763 69.768V62.832C233.763 62.336 233.731 61.88 233.667 61.464C233.603 61.048 233.443 60.712 233.187 60.456C232.931 60.2 232.515 60.072 231.939 60.072C231.315 60.072 230.755 60.264 230.259 60.648C229.779 61.032 229.395 61.552 229.107 62.208C228.835 62.864 228.699 63.6 228.699 64.416L228.627 62.184C229.059 61.08 229.643 60.328 230.379 59.928C231.115 59.512 231.867 59.304 232.635 59.304ZM245.78 59.304C246.212 59.304 246.588 59.392 246.908 59.568C247.244 59.744 247.5 59.976 247.676 60.264C247.868 60.536 247.964 60.848 247.964 61.2C247.964 61.6 247.836 61.952 247.58 62.256C247.34 62.56 247.012 62.712 246.596 62.712C246.26 62.712 245.964 62.608 245.708 62.4C245.452 62.176 245.324 61.864 245.324 61.464C245.324 61.16 245.404 60.904 245.564 60.696C245.74 60.472 245.932 60.296 246.14 60.168C246.028 60.008 245.86 59.928 245.636 59.928C245.14 59.928 244.684 60.08 244.268 60.384C243.852 60.672 243.5 61.048 243.212 61.512C242.924 61.976 242.7 62.472 242.54 63C242.38 63.512 242.3 63.992 242.3 64.44V69.528C242.3 70.312 242.524 70.84 242.972 71.112C243.436 71.368 244.06 71.496 244.844 71.496V72C244.476 71.984 243.956 71.968 243.284 71.952C242.612 71.92 241.9 71.904 241.148 71.904C240.604 71.904 240.06 71.92 239.516 71.952C238.988 71.968 238.588 71.984 238.316 72V71.496C238.972 71.496 239.436 71.376 239.708 71.136C239.996 70.896 240.14 70.44 240.14 69.768V62.256C240.14 61.536 240.012 61.008 239.756 60.672C239.5 60.32 239.02 60.144 238.316 60.144V59.64C238.828 59.688 239.324 59.712 239.804 59.712C240.268 59.712 240.708 59.688 241.124 59.64C241.556 59.576 241.948 59.488 242.3 59.376V62.376C242.476 61.912 242.724 61.448 243.044 60.984C243.38 60.504 243.78 60.104 244.244 59.784C244.708 59.464 245.22 59.304 245.78 59.304ZM251.931 72.168C251.275 72.168 250.707 72.048 250.227 71.808C249.747 71.552 249.379 71.2 249.123 70.752C248.883 70.304 248.763 69.784 248.763 69.192C248.763 68.488 248.923 67.912 249.243 67.464C249.579 67.016 250.003 66.656 250.515 66.384C251.027 66.112 251.563 65.888 252.123 65.712C252.699 65.52 253.243 65.344 253.755 65.184C254.267 65.008 254.683 64.808 255.003 64.584C255.339 64.36 255.507 64.064 255.507 63.696V62.208C255.507 61.536 255.403 61.024 255.195 60.672C255.003 60.32 254.739 60.088 254.403 59.976C254.067 59.848 253.691 59.784 253.275 59.784C252.875 59.784 252.443 59.84 251.979 59.952C251.531 60.064 251.171 60.296 250.899 60.648C251.203 60.712 251.467 60.872 251.691 61.128C251.915 61.384 252.027 61.712 252.027 62.112C252.027 62.512 251.899 62.832 251.643 63.072C251.387 63.296 251.059 63.408 250.659 63.408C250.195 63.408 249.851 63.264 249.627 62.976C249.419 62.672 249.315 62.336 249.315 61.968C249.315 61.552 249.419 61.216 249.627 60.96C249.835 60.704 250.099 60.464 250.419 60.24C250.787 59.984 251.259 59.768 251.835 59.592C252.427 59.4 253.091 59.304 253.827 59.304C254.483 59.304 255.043 59.384 255.507 59.544C255.971 59.688 256.355 59.904 256.659 60.192C257.075 60.576 257.347 61.048 257.475 61.608C257.603 62.152 257.667 62.808 257.667 63.576V70.248C257.667 70.648 257.723 70.936 257.835 71.112C257.963 71.288 258.155 71.376 258.411 71.376C258.587 71.376 258.755 71.336 258.915 71.256C259.075 71.176 259.267 71.048 259.491 70.872L259.755 71.28C259.419 71.536 259.099 71.752 258.795 71.928C258.491 72.088 258.083 72.168 257.571 72.168C257.107 72.168 256.723 72.088 256.419 71.928C256.115 71.768 255.883 71.536 255.723 71.232C255.579 70.912 255.507 70.512 255.507 70.032C255.075 70.752 254.555 71.288 253.947 71.64C253.355 71.992 252.683 72.168 251.931 72.168ZM252.795 71.208C253.323 71.208 253.811 71.056 254.259 70.752C254.723 70.448 255.139 69.992 255.507 69.384V64.68C255.315 64.952 255.035 65.184 254.667 65.376C254.299 65.552 253.899 65.736 253.467 65.928C253.035 66.104 252.619 66.32 252.219 66.576C251.835 66.816 251.515 67.136 251.259 67.536C251.003 67.936 250.875 68.456 250.875 69.096C250.875 69.736 251.043 70.248 251.379 70.632C251.731 71.016 252.203 71.208 252.795 71.208ZM264.412 76.512C263.564 76.512 262.764 76.424 262.012 76.248C261.26 76.072 260.652 75.792 260.188 75.408C259.74 75.04 259.516 74.568 259.516 73.992C259.516 73.432 259.74 72.952 260.188 72.552C260.636 72.152 261.244 71.848 262.012 71.64L262.156 72.024C261.804 72.136 261.524 72.36 261.316 72.696C261.108 73.032 261.004 73.408 261.004 73.824C261.004 74.56 261.34 75.12 262.012 75.504C262.7 75.904 263.588 76.104 264.676 76.104C265.396 76.104 266.1 76.008 266.788 75.816C267.476 75.64 268.044 75.336 268.492 74.904C268.94 74.472 269.164 73.904 269.164 73.2C269.164 72.672 268.972 72.24 268.588 71.904C268.22 71.552 267.484 71.376 266.38 71.376H264.604C264.092 71.376 263.596 71.336 263.116 71.256C262.636 71.176 262.244 71.008 261.94 70.752C261.636 70.496 261.484 70.104 261.484 69.576C261.484 69.032 261.708 68.512 262.156 68.016C262.604 67.504 263.428 66.984 264.628 66.456L264.916 66.672C264.372 66.96 263.9 67.256 263.5 67.56C263.1 67.848 262.9 68.192 262.9 68.592C262.9 69.104 263.284 69.36 264.052 69.36H267.052C267.724 69.36 268.34 69.456 268.9 69.648C269.476 69.84 269.94 70.144 270.292 70.56C270.644 70.976 270.82 71.52 270.82 72.192C270.82 72.944 270.58 73.648 270.1 74.304C269.62 74.96 268.9 75.488 267.94 75.888C266.996 76.304 265.82 76.512 264.412 76.512ZM264.532 66.888C263.748 66.888 263.036 66.76 262.396 66.504C261.756 66.232 261.252 65.816 260.884 65.256C260.516 64.696 260.332 63.976 260.332 63.096C260.332 62.216 260.516 61.496 260.884 60.936C261.252 60.376 261.756 59.968 262.396 59.712C263.036 59.44 263.748 59.304 264.532 59.304C265.332 59.304 266.044 59.44 266.668 59.712C267.308 59.968 267.812 60.376 268.18 60.936C268.548 61.496 268.732 62.216 268.732 63.096C268.732 63.976 268.548 64.696 268.18 65.256C267.812 65.816 267.308 66.232 266.668 66.504C266.044 66.76 265.332 66.888 264.532 66.888ZM264.532 66.456C265.14 66.456 265.612 66.216 265.948 65.736C266.3 65.256 266.476 64.376 266.476 63.096C266.476 61.816 266.3 60.936 265.948 60.456C265.612 59.976 265.14 59.736 264.532 59.736C263.94 59.736 263.468 59.976 263.116 60.456C262.764 60.936 262.588 61.816 262.588 63.096C262.588 64.376 262.764 65.256 263.116 65.736C263.468 66.216 263.94 66.456 264.532 66.456ZM267.988 61.296L267.556 61.128C267.78 60.584 268.164 60.104 268.708 59.688C269.252 59.272 269.82 59.064 270.412 59.064C270.828 59.064 271.164 59.184 271.42 59.424C271.676 59.648 271.804 59.992 271.804 60.456C271.804 60.952 271.668 61.304 271.396 61.512C271.14 61.704 270.876 61.8 270.604 61.8C270.364 61.8 270.14 61.72 269.932 61.56C269.724 61.384 269.604 61.112 269.572 60.744C269.54 60.376 269.652 59.904 269.908 59.328L270.22 59.4C269.548 59.656 269.068 59.928 268.78 60.216C268.492 60.488 268.228 60.848 267.988 61.296ZM275.964 53.208V62.184C276.38 61.096 276.956 60.344 277.692 59.928C278.444 59.512 279.228 59.304 280.044 59.304C280.652 59.304 281.156 59.384 281.556 59.544C281.972 59.704 282.316 59.928 282.588 60.216C282.892 60.536 283.108 60.936 283.236 61.416C283.364 61.896 283.428 62.544 283.428 63.36V69.768C283.428 70.44 283.564 70.896 283.836 71.136C284.124 71.376 284.596 71.496 285.252 71.496V72C284.98 71.984 284.564 71.968 284.004 71.952C283.444 71.92 282.9 71.904 282.372 71.904C281.844 71.904 281.324 71.92 280.812 71.952C280.316 71.968 279.94 71.984 279.684 72V71.496C280.26 71.496 280.668 71.376 280.908 71.136C281.148 70.896 281.268 70.44 281.268 69.768V62.832C281.268 62.336 281.228 61.88 281.148 61.464C281.068 61.048 280.884 60.712 280.596 60.456C280.324 60.2 279.9 60.072 279.324 60.072C278.668 60.072 278.084 60.256 277.572 60.624C277.076 60.992 276.684 61.504 276.396 62.16C276.108 62.816 275.964 63.568 275.964 64.416V69.768C275.964 70.44 276.084 70.896 276.324 71.136C276.564 71.376 276.972 71.496 277.548 71.496V72C277.292 71.984 276.908 71.968 276.396 71.952C275.9 71.92 275.388 71.904 274.86 71.904C274.332 71.904 273.788 71.92 273.228 71.952C272.668 71.968 272.252 71.984 271.98 72V71.496C272.636 71.496 273.1 71.376 273.372 71.136C273.66 70.896 273.804 70.44 273.804 69.768V56.088C273.804 55.368 273.676 54.84 273.42 54.504C273.164 54.152 272.684 53.976 271.98 53.976V53.472C272.492 53.52 272.988 53.544 273.468 53.544C273.932 53.544 274.372 53.52 274.788 53.472C275.22 53.408 275.612 53.32 275.964 53.208ZM289.689 55.656V59.664H293.241V60.144H289.689V69.432C289.689 70.184 289.825 70.712 290.097 71.016C290.369 71.32 290.745 71.472 291.225 71.472C291.705 71.472 292.121 71.28 292.473 70.896C292.825 70.496 293.129 69.832 293.385 68.904L293.865 69.024C293.705 69.952 293.385 70.736 292.905 71.376C292.441 72.016 291.721 72.336 290.745 72.336C290.201 72.336 289.753 72.264 289.401 72.12C289.049 71.992 288.737 71.8 288.465 71.544C288.113 71.176 287.865 70.736 287.721 70.224C287.593 69.712 287.529 69.032 287.529 68.184V60.144H285.225V59.664H287.529V55.992C287.929 55.976 288.313 55.944 288.681 55.896C289.049 55.848 289.385 55.768 289.689 55.656ZM296.158 69.264C296.51 69.264 296.798 69.336 297.022 69.48C297.246 69.624 297.43 69.808 297.574 70.032C297.75 70.288 297.862 70.568 297.91 70.872C297.958 71.176 297.982 71.424 297.982 71.616C297.982 72.4 297.782 73.112 297.382 73.752C296.982 74.392 296.358 74.912 295.51 75.312L295.294 74.88C295.79 74.672 296.214 74.344 296.566 73.896C296.934 73.448 297.118 72.992 297.118 72.528C297.118 72.336 297.094 72.168 297.046 72.024C296.79 72.232 296.494 72.336 296.158 72.336C295.742 72.336 295.382 72.2 295.078 71.928C294.774 71.656 294.622 71.28 294.622 70.8C294.622 70.352 294.774 69.984 295.078 69.696C295.382 69.408 295.742 69.264 296.158 69.264ZM318.03 55.008C317.966 55.616 317.918 56.208 317.886 56.784C317.87 57.344 317.862 57.776 317.862 58.08C317.862 58.464 317.87 58.824 317.886 59.16C317.902 59.496 317.918 59.792 317.934 60.048H317.382C317.27 58.928 317.118 58.048 316.926 57.408C316.734 56.752 316.398 56.28 315.918 55.992C315.438 55.704 314.694 55.56 313.686 55.56H312.39V69.216C312.39 69.856 312.446 70.336 312.558 70.656C312.686 70.976 312.926 71.192 313.278 71.304C313.63 71.416 314.142 71.488 314.814 71.52V72C314.398 71.968 313.87 71.952 313.23 71.952C312.59 71.936 311.942 71.928 311.286 71.928C310.566 71.928 309.886 71.936 309.246 71.952C308.622 71.952 308.118 71.968 307.734 72V71.52C308.406 71.488 308.918 71.416 309.27 71.304C309.622 71.192 309.854 70.976 309.966 70.656C310.094 70.336 310.158 69.856 310.158 69.216V55.56H308.862C307.87 55.56 307.126 55.704 306.63 55.992C306.15 56.28 305.814 56.752 305.622 57.408C305.43 58.048 305.278 58.928 305.166 60.048H304.614C304.646 59.792 304.662 59.496 304.662 59.16C304.678 58.824 304.686 58.464 304.686 58.08C304.686 57.776 304.67 57.344 304.638 56.784C304.622 56.208 304.582 55.616 304.518 55.008C305.19 55.024 305.918 55.04 306.702 55.056C307.502 55.072 308.302 55.08 309.102 55.08C309.902 55.08 310.63 55.08 311.286 55.08C311.942 55.08 312.662 55.08 313.446 55.08C314.246 55.08 315.046 55.072 315.846 55.056C316.646 55.04 317.374 55.024 318.03 55.008ZM322.024 72.168C321.368 72.168 320.8 72.048 320.32 71.808C319.84 71.552 319.472 71.2 319.216 70.752C318.976 70.304 318.856 69.784 318.856 69.192C318.856 68.488 319.016 67.912 319.336 67.464C319.672 67.016 320.096 66.656 320.608 66.384C321.12 66.112 321.656 65.888 322.216 65.712C322.792 65.52 323.336 65.344 323.848 65.184C324.36 65.008 324.776 64.808 325.096 64.584C325.432 64.36 325.6 64.064 325.6 63.696V62.208C325.6 61.536 325.496 61.024 325.288 60.672C325.096 60.32 324.832 60.088 324.496 59.976C324.16 59.848 323.784 59.784 323.368 59.784C322.968 59.784 322.536 59.84 322.072 59.952C321.624 60.064 321.264 60.296 320.992 60.648C321.296 60.712 321.56 60.872 321.784 61.128C322.008 61.384 322.12 61.712 322.12 62.112C322.12 62.512 321.992 62.832 321.736 63.072C321.48 63.296 321.152 63.408 320.752 63.408C320.288 63.408 319.944 63.264 319.72 62.976C319.512 62.672 319.408 62.336 319.408 61.968C319.408 61.552 319.512 61.216 319.72 60.96C319.928 60.704 320.192 60.464 320.512 60.24C320.88 59.984 321.352 59.768 321.928 59.592C322.52 59.4 323.184 59.304 323.92 59.304C324.576 59.304 325.136 59.384 325.6 59.544C326.064 59.688 326.448 59.904 326.752 60.192C327.168 60.576 327.44 61.048 327.568 61.608C327.696 62.152 327.76 62.808 327.76 63.576V70.248C327.76 70.648 327.816 70.936 327.928 71.112C328.056 71.288 328.248 71.376 328.504 71.376C328.68 71.376 328.848 71.336 329.008 71.256C329.168 71.176 329.36 71.048 329.584 70.872L329.848 71.28C329.512 71.536 329.192 71.752 328.888 71.928C328.584 72.088 328.176 72.168 327.664 72.168C327.2 72.168 326.816 72.088 326.512 71.928C326.208 71.768 325.976 71.536 325.816 71.232C325.672 70.912 325.6 70.512 325.6 70.032C325.168 70.752 324.648 71.288 324.04 71.64C323.448 71.992 322.776 72.168 322.024 72.168ZM322.888 71.208C323.416 71.208 323.904 71.056 324.352 70.752C324.816 70.448 325.232 69.992 325.6 69.384V64.68C325.408 64.952 325.128 65.184 324.76 65.376C324.392 65.552 323.992 65.736 323.56 65.928C323.128 66.104 322.712 66.32 322.312 66.576C321.928 66.816 321.608 67.136 321.352 67.536C321.096 67.936 320.968 68.456 320.968 69.096C320.968 69.736 321.136 70.248 321.472 70.632C321.824 71.016 322.296 71.208 322.888 71.208ZM334.505 76.512C333.657 76.512 332.857 76.424 332.105 76.248C331.353 76.072 330.745 75.792 330.281 75.408C329.833 75.04 329.609 74.568 329.609 73.992C329.609 73.432 329.833 72.952 330.281 72.552C330.729 72.152 331.337 71.848 332.105 71.64L332.249 72.024C331.897 72.136 331.617 72.36 331.409 72.696C331.201 73.032 331.097 73.408 331.097 73.824C331.097 74.56 331.433 75.12 332.105 75.504C332.793 75.904 333.681 76.104 334.769 76.104C335.489 76.104 336.193 76.008 336.881 75.816C337.569 75.64 338.137 75.336 338.585 74.904C339.033 74.472 339.257 73.904 339.257 73.2C339.257 72.672 339.065 72.24 338.681 71.904C338.313 71.552 337.577 71.376 336.473 71.376H334.697C334.185 71.376 333.689 71.336 333.209 71.256C332.729 71.176 332.337 71.008 332.033 70.752C331.729 70.496 331.577 70.104 331.577 69.576C331.577 69.032 331.801 68.512 332.249 68.016C332.697 67.504 333.521 66.984 334.721 66.456L335.009 66.672C334.465 66.96 333.993 67.256 333.593 67.56C333.193 67.848 332.993 68.192 332.993 68.592C332.993 69.104 333.377 69.36 334.145 69.36H337.145C337.817 69.36 338.433 69.456 338.993 69.648C339.569 69.84 340.033 70.144 340.385 70.56C340.737 70.976 340.913 71.52 340.913 72.192C340.913 72.944 340.673 73.648 340.193 74.304C339.713 74.96 338.993 75.488 338.033 75.888C337.089 76.304 335.913 76.512 334.505 76.512ZM334.625 66.888C333.841 66.888 333.129 66.76 332.489 66.504C331.849 66.232 331.345 65.816 330.977 65.256C330.609 64.696 330.425 63.976 330.425 63.096C330.425 62.216 330.609 61.496 330.977 60.936C331.345 60.376 331.849 59.968 332.489 59.712C333.129 59.44 333.841 59.304 334.625 59.304C335.425 59.304 336.137 59.44 336.761 59.712C337.401 59.968 337.905 60.376 338.273 60.936C338.641 61.496 338.825 62.216 338.825 63.096C338.825 63.976 338.641 64.696 338.273 65.256C337.905 65.816 337.401 66.232 336.761 66.504C336.137 66.76 335.425 66.888 334.625 66.888ZM334.625 66.456C335.233 66.456 335.705 66.216 336.041 65.736C336.393 65.256 336.569 64.376 336.569 63.096C336.569 61.816 336.393 60.936 336.041 60.456C335.705 59.976 335.233 59.736 334.625 59.736C334.033 59.736 333.561 59.976 333.209 60.456C332.857 60.936 332.681 61.816 332.681 63.096C332.681 64.376 332.857 65.256 333.209 65.736C333.561 66.216 334.033 66.456 334.625 66.456ZM338.081 61.296L337.649 61.128C337.873 60.584 338.257 60.104 338.801 59.688C339.345 59.272 339.913 59.064 340.505 59.064C340.921 59.064 341.257 59.184 341.513 59.424C341.769 59.648 341.897 59.992 341.897 60.456C341.897 60.952 341.761 61.304 341.489 61.512C341.233 61.704 340.969 61.8 340.697 61.8C340.457 61.8 340.233 61.72 340.025 61.56C339.817 61.384 339.697 61.112 339.665 60.744C339.633 60.376 339.745 59.904 340.001 59.328L340.313 59.4C339.641 59.656 339.161 59.928 338.873 60.216C338.585 60.488 338.321 60.848 338.081 61.296ZM346.057 53.208V62.184C346.473 61.096 347.049 60.344 347.785 59.928C348.537 59.512 349.321 59.304 350.137 59.304C350.745 59.304 351.249 59.384 351.649 59.544C352.065 59.704 352.409 59.928 352.681 60.216C352.985 60.536 353.201 60.936 353.329 61.416C353.457 61.896 353.521 62.544 353.521 63.36V69.768C353.521 70.44 353.657 70.896 353.929 71.136C354.217 71.376 354.689 71.496 355.345 71.496V72C355.073 71.984 354.657 71.968 354.097 71.952C353.537 71.92 352.993 71.904 352.465 71.904C351.937 71.904 351.417 71.92 350.905 71.952C350.409 71.968 350.033 71.984 349.777 72V71.496C350.353 71.496 350.761 71.376 351.001 71.136C351.241 70.896 351.361 70.44 351.361 69.768V62.832C351.361 62.336 351.321 61.88 351.241 61.464C351.161 61.048 350.977 60.712 350.689 60.456C350.417 60.2 349.993 60.072 349.417 60.072C348.761 60.072 348.177 60.256 347.665 60.624C347.169 60.992 346.777 61.504 346.489 62.16C346.201 62.816 346.057 63.568 346.057 64.416V69.768C346.057 70.44 346.177 70.896 346.417 71.136C346.657 71.376 347.065 71.496 347.641 71.496V72C347.385 71.984 347.001 71.968 346.489 71.952C345.993 71.92 345.481 71.904 344.953 71.904C344.425 71.904 343.881 71.92 343.321 71.952C342.761 71.968 342.345 71.984 342.073 72V71.496C342.729 71.496 343.193 71.376 343.465 71.136C343.753 70.896 343.897 70.44 343.897 69.768V56.088C343.897 55.368 343.769 54.84 343.513 54.504C343.257 54.152 342.777 53.976 342.073 53.976V53.472C342.585 53.52 343.081 53.544 343.561 53.544C344.025 53.544 344.465 53.52 344.881 53.472C345.313 53.408 345.705 53.32 346.057 53.208ZM359.327 72.168C358.671 72.168 358.103 72.048 357.623 71.808C357.143 71.552 356.775 71.2 356.519 70.752C356.279 70.304 356.159 69.784 356.159 69.192C356.159 68.488 356.319 67.912 356.639 67.464C356.975 67.016 357.399 66.656 357.911 66.384C358.423 66.112 358.959 65.888 359.519 65.712C360.095 65.52 360.639 65.344 361.151 65.184C361.663 65.008 362.079 64.808 362.399 64.584C362.735 64.36 362.903 64.064 362.903 63.696V62.208C362.903 61.536 362.799 61.024 362.591 60.672C362.399 60.32 362.135 60.088 361.799 59.976C361.463 59.848 361.087 59.784 360.671 59.784C360.271 59.784 359.839 59.84 359.375 59.952C358.927 60.064 358.567 60.296 358.295 60.648C358.599 60.712 358.863 60.872 359.087 61.128C359.311 61.384 359.423 61.712 359.423 62.112C359.423 62.512 359.295 62.832 359.039 63.072C358.783 63.296 358.455 63.408 358.055 63.408C357.591 63.408 357.247 63.264 357.023 62.976C356.815 62.672 356.711 62.336 356.711 61.968C356.711 61.552 356.815 61.216 357.023 60.96C357.231 60.704 357.495 60.464 357.815 60.24C358.183 59.984 358.655 59.768 359.231 59.592C359.823 59.4 360.487 59.304 361.223 59.304C361.879 59.304 362.439 59.384 362.903 59.544C363.367 59.688 363.751 59.904 364.055 60.192C364.471 60.576 364.743 61.048 364.871 61.608C364.999 62.152 365.063 62.808 365.063 63.576V70.248C365.063 70.648 365.119 70.936 365.231 71.112C365.359 71.288 365.551 71.376 365.807 71.376C365.983 71.376 366.151 71.336 366.311 71.256C366.471 71.176 366.663 71.048 366.887 70.872L367.151 71.28C366.815 71.536 366.495 71.752 366.191 71.928C365.887 72.088 365.479 72.168 364.967 72.168C364.503 72.168 364.119 72.088 363.815 71.928C363.511 71.768 363.279 71.536 363.119 71.232C362.975 70.912 362.903 70.512 362.903 70.032C362.471 70.752 361.951 71.288 361.343 71.64C360.751 71.992 360.079 72.168 359.327 72.168ZM360.191 71.208C360.719 71.208 361.207 71.056 361.655 70.752C362.119 70.448 362.535 69.992 362.903 69.384V64.68C362.711 64.952 362.431 65.184 362.063 65.376C361.695 65.552 361.295 65.736 360.863 65.928C360.431 66.104 360.015 66.32 359.615 66.576C359.231 66.816 358.911 67.136 358.655 67.536C358.399 67.936 358.271 68.456 358.271 69.096C358.271 69.736 358.439 70.248 358.775 70.632C359.127 71.016 359.599 71.208 360.191 71.208ZM377.232 59.52L370.296 71.64H372.936C373.576 71.64 374.128 71.512 374.592 71.256C375.072 71 375.456 70.592 375.744 70.032C376.032 69.456 376.208 68.704 376.272 67.776H376.824C376.824 68.8 376.832 69.664 376.848 70.368C376.864 71.072 376.888 71.648 376.92 72.096C376.216 72.064 375.48 72.04 374.712 72.024C373.96 72.008 373.208 72 372.456 72C371.656 72 370.84 72.008 370.008 72.024C369.176 72.056 368.376 72.088 367.608 72.12L374.544 60H371.904C371.2 60 370.608 60.128 370.128 60.384C369.664 60.64 369.304 61.056 369.048 61.632C368.808 62.192 368.648 62.936 368.568 63.864H368.016C368.016 62.824 368.008 61.96 367.992 61.272C367.976 60.568 367.952 59.992 367.92 59.544C368.624 59.576 369.352 59.6 370.104 59.616C370.872 59.632 371.632 59.64 372.384 59.64C373.184 59.64 374 59.632 374.832 59.616C375.664 59.584 376.464 59.552 377.232 59.52ZM384.206 59.304C385.23 59.304 386.15 59.528 386.966 59.976C387.782 60.424 388.43 61.128 388.91 62.088C389.406 63.048 389.654 64.296 389.654 65.832C389.654 67.368 389.406 68.616 388.91 69.576C388.43 70.52 387.782 71.216 386.966 71.664C386.15 72.112 385.23 72.336 384.206 72.336C383.198 72.336 382.278 72.112 381.446 71.664C380.63 71.216 379.974 70.52 379.478 69.576C378.998 68.616 378.758 67.368 378.758 65.832C378.758 64.296 378.998 63.048 379.478 62.088C379.974 61.128 380.63 60.424 381.446 59.976C382.278 59.528 383.198 59.304 384.206 59.304ZM384.206 59.784C383.294 59.784 382.542 60.256 381.95 61.2C381.374 62.144 381.086 63.688 381.086 65.832C381.086 67.976 381.374 69.52 381.95 70.464C382.542 71.392 383.294 71.856 384.206 71.856C385.118 71.856 385.862 71.392 386.438 70.464C387.03 69.52 387.326 67.976 387.326 65.832C387.326 63.688 387.03 62.144 386.438 61.2C385.862 60.256 385.118 59.784 384.206 59.784ZM401.89 59.376V69.408C401.89 70.128 402.018 70.664 402.274 71.016C402.546 71.352 403.026 71.52 403.714 71.52V72.024C403.218 71.976 402.722 71.952 402.226 71.952C401.762 71.952 401.314 71.976 400.882 72.024C400.466 72.072 400.082 72.16 399.73 72.288V69.456C399.33 70.496 398.762 71.24 398.026 71.688C397.306 72.12 396.562 72.336 395.794 72.336C395.234 72.336 394.746 72.256 394.33 72.096C393.914 71.936 393.57 71.712 393.298 71.424C392.994 71.104 392.786 70.688 392.674 70.176C392.562 69.664 392.506 69.032 392.506 68.28V62.256C392.506 61.536 392.378 61.008 392.122 60.672C391.866 60.32 391.386 60.144 390.682 60.144V59.64C391.194 59.688 391.69 59.712 392.17 59.712C392.634 59.712 393.074 59.688 393.49 59.64C393.922 59.576 394.314 59.488 394.666 59.376V68.808C394.666 69.304 394.698 69.76 394.762 70.176C394.826 70.592 394.986 70.928 395.242 71.184C395.498 71.44 395.914 71.568 396.49 71.568C397.114 71.568 397.666 71.376 398.146 70.992C398.642 70.608 399.026 70.088 399.298 69.432C399.586 68.776 399.73 68.04 399.73 67.224V62.256C399.73 61.536 399.602 61.008 399.346 60.672C399.09 60.32 398.61 60.144 397.906 60.144V59.64C398.418 59.688 398.914 59.712 399.394 59.712C399.858 59.712 400.298 59.688 400.714 59.64C401.146 59.576 401.538 59.488 401.89 59.376ZM408.323 55.656V59.664H411.875V60.144H408.323V69.432C408.323 70.184 408.459 70.712 408.731 71.016C409.003 71.32 409.379 71.472 409.859 71.472C410.339 71.472 410.755 71.28 411.107 70.896C411.459 70.496 411.763 69.832 412.019 68.904L412.499 69.024C412.339 69.952 412.019 70.736 411.539 71.376C411.075 72.016 410.355 72.336 409.379 72.336C408.835 72.336 408.387 72.264 408.035 72.12C407.683 71.992 407.371 71.8 407.099 71.544C406.747 71.176 406.499 70.736 406.355 70.224C406.227 69.712 406.163 69.032 406.163 68.184V60.144H403.859V59.664H406.163V55.992C406.563 55.976 406.947 55.944 407.315 55.896C407.683 55.848 408.019 55.768 408.323 55.656ZM424.234 55.152C424.842 55.152 425.346 55.224 425.746 55.368C426.146 55.496 426.474 55.664 426.73 55.872C426.938 56.032 427.106 56.208 427.234 56.4C427.362 56.592 427.458 56.784 427.522 56.976C427.586 57.168 427.618 57.352 427.618 57.528C427.618 57.928 427.474 58.24 427.186 58.464C426.914 58.688 426.61 58.8 426.274 58.8C425.954 58.8 425.666 58.696 425.41 58.488C425.154 58.28 425.026 57.984 425.026 57.6C425.026 57.248 425.146 56.952 425.386 56.712C425.626 56.456 425.93 56.312 426.298 56.28C426.234 56.072 426.034 55.896 425.698 55.752C425.378 55.592 424.97 55.512 424.474 55.512C423.658 55.512 422.986 55.76 422.458 56.256C421.946 56.736 421.69 57.44 421.69 58.368C421.69 58.816 421.77 59.272 421.93 59.736C422.106 60.2 422.434 60.656 422.914 61.104C423.186 61.056 423.466 61.024 423.754 61.008C424.042 60.976 424.258 60.96 424.402 60.96C424.69 60.96 424.922 61.008 425.098 61.104C425.274 61.2 425.362 61.336 425.362 61.512C425.362 61.656 425.298 61.768 425.17 61.848C425.058 61.928 424.898 61.968 424.69 61.968C424.386 61.968 424.066 61.904 423.73 61.776C423.394 61.632 423.13 61.52 422.938 61.44C422.01 61.712 421.258 62.16 420.682 62.784C420.106 63.392 419.818 64.256 419.818 65.376C419.818 66.48 420.106 67.416 420.682 68.184C421.258 68.952 422.026 69.544 422.986 69.96C423.962 70.36 425.05 70.56 426.25 70.56C427.098 70.56 427.898 70.464 428.65 70.272C429.418 70.064 430.09 69.768 430.666 69.384C431.258 69 431.722 68.544 432.058 68.016C432.394 67.472 432.562 66.856 432.562 66.168C432.562 65.864 432.498 65.48 432.37 65.016C432.242 64.536 431.978 64.072 431.578 63.624C431.178 63.16 430.562 62.8 429.73 62.544L430.018 62.304C431.186 62.656 432.018 63.224 432.514 64.008C433.01 64.776 433.258 65.64 433.258 66.6C433.258 67.56 432.97 68.48 432.394 69.36C431.818 70.24 430.986 70.96 429.898 71.52C428.81 72.064 427.49 72.336 425.938 72.336C424.898 72.336 423.906 72.2 422.962 71.928C422.034 71.656 421.21 71.264 420.49 70.752C419.77 70.224 419.202 69.592 418.786 68.856C418.37 68.12 418.162 67.288 418.162 66.36C418.162 65.496 418.33 64.76 418.666 64.152C419.002 63.528 419.418 63.016 419.914 62.616C420.41 62.216 420.906 61.912 421.402 61.704C421.898 61.48 422.298 61.328 422.602 61.248C422.074 61.008 421.626 60.728 421.258 60.408C420.906 60.072 420.634 59.712 420.442 59.328C420.266 58.928 420.178 58.536 420.178 58.152C420.178 57.768 420.266 57.4 420.442 57.048C420.618 56.68 420.874 56.352 421.21 56.064C421.546 55.776 421.962 55.552 422.458 55.392C422.97 55.232 423.562 55.152 424.234 55.152ZM432.97 54.672C433.962 54.672 434.794 54.96 435.466 55.536C436.138 56.096 436.474 56.888 436.474 57.912C436.474 58.456 436.37 58.944 436.162 59.376C435.97 59.792 435.698 60.16 435.346 60.48C435.01 60.8 434.626 61.064 434.194 61.272C433.826 61.448 433.338 61.64 432.73 61.848C432.138 62.056 431.498 62.264 430.81 62.472C430.138 62.68 429.49 62.888 428.866 63.096C428.258 63.288 427.762 63.456 427.378 63.6C426.786 63.824 426.282 64.104 425.866 64.44C425.466 64.76 425.266 65.176 425.266 65.688C425.266 66.104 425.386 66.456 425.626 66.744C425.866 67.032 426.154 67.248 426.49 67.392C426.842 67.536 427.17 67.608 427.474 67.608C427.618 67.608 427.794 67.592 428.002 67.56C428.226 67.512 428.426 67.448 428.602 67.368C428.778 67.288 428.882 67.192 428.914 67.08C428.658 67.032 428.402 66.92 428.146 66.744C427.906 66.552 427.786 66.256 427.786 65.856C427.786 65.472 427.914 65.168 428.17 64.944C428.426 64.72 428.738 64.608 429.106 64.608C429.49 64.608 429.794 64.728 430.018 64.968C430.258 65.208 430.378 65.52 430.378 65.904C430.378 66.352 430.226 66.736 429.922 67.056C429.634 67.36 429.266 67.592 428.818 67.752C428.386 67.896 427.954 67.968 427.522 67.968C427.074 67.968 426.618 67.872 426.154 67.68C425.69 67.488 425.306 67.192 425.002 66.792C424.698 66.376 424.546 65.832 424.546 65.16C424.546 64.6 424.666 64.104 424.906 63.672C425.162 63.24 425.538 62.856 426.034 62.52C426.53 62.184 427.138 61.896 427.858 61.656C428.338 61.496 428.922 61.32 429.61 61.128C430.298 60.936 431.002 60.728 431.722 60.504C432.458 60.28 433.122 60.032 433.714 59.76C434.514 59.392 435.058 59.016 435.346 58.632C435.634 58.248 435.778 57.856 435.778 57.456C435.778 56.992 435.65 56.584 435.394 56.232C435.138 55.864 434.794 55.576 434.362 55.368C433.946 55.144 433.49 55.032 432.994 55.032C432.802 55.032 432.642 55.048 432.514 55.08C432.386 55.112 432.306 55.168 432.274 55.248C432.498 55.36 432.666 55.52 432.778 55.728C432.89 55.936 432.946 56.144 432.946 56.352C432.946 56.688 432.81 56.968 432.538 57.192C432.282 57.416 431.97 57.528 431.602 57.528C431.298 57.528 431.01 57.432 430.738 57.24C430.466 57.032 430.33 56.728 430.33 56.328C430.33 55.912 430.466 55.584 430.738 55.344C431.026 55.104 431.37 54.936 431.77 54.84C432.186 54.728 432.586 54.672 432.97 54.672ZM448.9 54.888L454.756 69.984C454.996 70.592 455.268 71 455.572 71.208C455.876 71.4 456.156 71.504 456.412 71.52V72C456.092 71.968 455.7 71.952 455.236 71.952C454.772 71.936 454.308 71.928 453.844 71.928C453.22 71.928 452.636 71.936 452.092 71.952C451.548 71.952 451.108 71.968 450.772 72V71.52C451.588 71.488 452.108 71.352 452.332 71.112C452.556 70.856 452.508 70.32 452.188 69.504L447.724 57.576L448.108 57.264L443.932 68.112C443.676 68.752 443.524 69.296 443.476 69.744C443.428 70.176 443.468 70.52 443.596 70.776C443.74 71.032 443.972 71.216 444.292 71.328C444.628 71.44 445.044 71.504 445.54 71.52V72C445.092 71.968 444.62 71.952 444.124 71.952C443.644 71.936 443.196 71.928 442.78 71.928C442.38 71.928 442.036 71.936 441.748 71.952C441.476 71.952 441.22 71.968 440.98 72V71.52C441.3 71.44 441.628 71.256 441.964 70.968C442.3 70.664 442.604 70.152 442.876 69.432L448.516 54.888C448.58 54.888 448.644 54.888 448.708 54.888C448.772 54.888 448.836 54.888 448.9 54.888ZM451.828 65.088V65.568H444.676L444.916 65.088H451.828ZM462.361 59.304C463.385 59.304 464.305 59.528 465.121 59.976C465.937 60.424 466.585 61.128 467.065 62.088C467.561 63.048 467.809 64.296 467.809 65.832C467.809 67.368 467.561 68.616 467.065 69.576C466.585 70.52 465.937 71.216 465.121 71.664C464.305 72.112 463.385 72.336 462.361 72.336C461.353 72.336 460.433 72.112 459.601 71.664C458.785 71.216 458.129 70.52 457.633 69.576C457.153 68.616 456.913 67.368 456.913 65.832C456.913 64.296 457.153 63.048 457.633 62.088C458.129 61.128 458.785 60.424 459.601 59.976C460.433 59.528 461.353 59.304 462.361 59.304ZM462.361 59.784C461.449 59.784 460.697 60.256 460.105 61.2C459.529 62.144 459.241 63.688 459.241 65.832C459.241 67.976 459.529 69.52 460.105 70.464C460.697 71.392 461.449 71.856 462.361 71.856C463.273 71.856 464.017 71.392 464.593 70.464C465.185 69.52 465.481 67.976 465.481 65.832C465.481 63.688 465.185 62.144 464.593 61.2C464.017 60.256 463.273 59.784 462.361 59.784ZM480.046 59.376V69.408C480.046 70.128 480.174 70.664 480.43 71.016C480.702 71.352 481.182 71.52 481.87 71.52V72.024C481.374 71.976 480.878 71.952 480.382 71.952C479.918 71.952 479.47 71.976 479.038 72.024C478.622 72.072 478.238 72.16 477.886 72.288V69.456C477.486 70.496 476.918 71.24 476.182 71.688C475.462 72.12 474.718 72.336 473.95 72.336C473.39 72.336 472.902 72.256 472.486 72.096C472.07 71.936 471.726 71.712 471.454 71.424C471.15 71.104 470.942 70.688 470.83 70.176C470.718 69.664 470.662 69.032 470.662 68.28V62.256C470.662 61.536 470.534 61.008 470.278 60.672C470.022 60.32 469.542 60.144 468.838 60.144V59.64C469.35 59.688 469.846 59.712 470.326 59.712C470.79 59.712 471.23 59.688 471.646 59.64C472.078 59.576 472.47 59.488 472.822 59.376V68.808C472.822 69.304 472.854 69.76 472.918 70.176C472.982 70.592 473.142 70.928 473.398 71.184C473.654 71.44 474.07 71.568 474.646 71.568C475.27 71.568 475.822 71.376 476.302 70.992C476.798 70.608 477.182 70.088 477.454 69.432C477.742 68.776 477.886 68.04 477.886 67.224V62.256C477.886 61.536 477.758 61.008 477.502 60.672C477.246 60.32 476.766 60.144 476.062 60.144V59.64C476.574 59.688 477.07 59.712 477.55 59.712C478.014 59.712 478.454 59.688 478.87 59.64C479.302 59.576 479.694 59.488 480.046 59.376ZM490.079 59.304C490.511 59.304 490.887 59.392 491.207 59.568C491.543 59.744 491.799 59.976 491.975 60.264C492.167 60.536 492.263 60.848 492.263 61.2C492.263 61.6 492.135 61.952 491.879 62.256C491.639 62.56 491.311 62.712 490.895 62.712C490.559 62.712 490.263 62.608 490.007 62.4C489.751 62.176 489.623 61.864 489.623 61.464C489.623 61.16 489.703 60.904 489.863 60.696C490.039 60.472 490.231 60.296 490.439 60.168C490.327 60.008 490.159 59.928 489.935 59.928C489.439 59.928 488.983 60.08 488.567 60.384C488.151 60.672 487.799 61.048 487.511 61.512C487.223 61.976 486.999 62.472 486.839 63C486.679 63.512 486.599 63.992 486.599 64.44V69.528C486.599 70.312 486.823 70.84 487.271 71.112C487.735 71.368 488.359 71.496 489.143 71.496V72C488.775 71.984 488.255 71.968 487.583 71.952C486.911 71.92 486.199 71.904 485.447 71.904C484.903 71.904 484.359 71.92 483.815 71.952C483.287 71.968 482.887 71.984 482.615 72V71.496C483.271 71.496 483.735 71.376 484.007 71.136C484.295 70.896 484.439 70.44 484.439 69.768V62.256C484.439 61.536 484.311 61.008 484.055 60.672C483.799 60.32 483.319 60.144 482.615 60.144V59.64C483.127 59.688 483.623 59.712 484.103 59.712C484.567 59.712 485.007 59.688 485.423 59.64C485.855 59.576 486.247 59.488 486.599 59.376V62.376C486.775 61.912 487.023 61.448 487.343 60.984C487.679 60.504 488.079 60.104 488.543 59.784C489.007 59.464 489.519 59.304 490.079 59.304ZM495.559 53.64C495.975 53.64 496.335 53.792 496.639 54.096C496.943 54.4 497.095 54.76 497.095 55.176C497.095 55.592 496.943 55.952 496.639 56.256C496.335 56.56 495.975 56.712 495.559 56.712C495.143 56.712 494.783 56.56 494.479 56.256C494.175 55.952 494.023 55.592 494.023 55.176C494.023 54.76 494.175 54.4 494.479 54.096C494.783 53.792 495.143 53.64 495.559 53.64ZM496.807 59.376V69.768C496.807 70.44 496.943 70.896 497.215 71.136C497.503 71.376 497.975 71.496 498.631 71.496V72C498.359 71.984 497.943 71.968 497.383 71.952C496.839 71.92 496.287 71.904 495.727 71.904C495.183 71.904 494.631 71.92 494.071 71.952C493.511 71.968 493.095 71.984 492.823 72V71.496C493.479 71.496 493.943 71.376 494.215 71.136C494.503 70.896 494.647 70.44 494.647 69.768V62.256C494.647 61.536 494.519 61.008 494.263 60.672C494.007 60.32 493.527 60.144 492.823 60.144V59.64C493.335 59.688 493.831 59.712 494.311 59.712C494.775 59.712 495.215 59.688 495.631 59.64C496.063 59.576 496.455 59.488 496.807 59.376ZM506.838 59.304C507.27 59.304 507.646 59.392 507.966 59.568C508.302 59.744 508.558 59.976 508.734 60.264C508.926 60.536 509.022 60.848 509.022 61.2C509.022 61.6 508.894 61.952 508.638 62.256C508.398 62.56 508.07 62.712 507.654 62.712C507.318 62.712 507.022 62.608 506.766 62.4C506.51 62.176 506.382 61.864 506.382 61.464C506.382 61.16 506.462 60.904 506.622 60.696C506.798 60.472 506.99 60.296 507.198 60.168C507.086 60.008 506.918 59.928 506.694 59.928C506.198 59.928 505.742 60.08 505.326 60.384C504.91 60.672 504.558 61.048 504.27 61.512C503.982 61.976 503.758 62.472 503.598 63C503.438 63.512 503.358 63.992 503.358 64.44V69.528C503.358 70.312 503.582 70.84 504.03 71.112C504.494 71.368 505.118 71.496 505.902 71.496V72C505.534 71.984 505.014 71.968 504.342 71.952C503.67 71.92 502.958 71.904 502.206 71.904C501.662 71.904 501.118 71.92 500.574 71.952C500.046 71.968 499.646 71.984 499.374 72V71.496C500.03 71.496 500.494 71.376 500.766 71.136C501.054 70.896 501.198 70.44 501.198 69.768V62.256C501.198 61.536 501.07 61.008 500.814 60.672C500.558 60.32 500.078 60.144 499.374 60.144V59.64C499.886 59.688 500.382 59.712 500.862 59.712C501.326 59.712 501.766 59.688 502.182 59.64C502.614 59.576 503.006 59.488 503.358 59.376V62.376C503.534 61.912 503.782 61.448 504.102 60.984C504.438 60.504 504.838 60.104 505.302 59.784C505.766 59.464 506.278 59.304 506.838 59.304Z" fill="black"/>
</svg>
