<svg width="55" height="55" viewBox="0 0 55 55" fill="none" xmlns="http://www.w3.org/2000/svg">
<path d="M27.4303 23.2192C27.4303 23.7325 27.8428 24.1358 28.347 24.1358C29.392 24.1358 30.2353 24.9883 30.2353 26.0242C30.2353 26.5283 30.6478 26.9408 31.152 26.9408C31.6561 26.9408 32.0686 26.5283 32.0686 26.0242C32.0686 23.9708 30.4003 22.3025 28.347 22.3025C27.8428 22.3025 27.4303 22.715 27.4303 23.2192ZM42.3536 26.9408C42.867 26.9408 43.2703 26.5283 43.2703 26.0242C43.2703 17.7925 36.5786 11.1008 28.347 11.1008C27.8428 11.1008 27.4303 11.5133 27.4303 12.0175C27.4303 12.5217 27.8428 12.9342 28.347 12.9342C35.5703 12.9342 41.437 18.81 41.437 26.0242C41.437 26.5283 41.8495 26.9408 42.3536 26.9408Z" fill="black"/>
<path d="M35.8362 26.0242C35.8362 26.5283 36.2487 26.9408 36.7529 26.9408C37.257 26.9408 37.6695 26.5283 37.6695 26.0242C37.6695 20.8817 33.4895 16.7017 28.347 16.7017C27.8428 16.7017 27.4303 17.1142 27.4303 17.6183C27.4303 18.1317 27.8428 18.535 28.347 18.535C32.4812 18.535 35.8362 21.8992 35.8362 26.0242ZM28.347 5.5C27.8428 5.5 27.4303 5.9125 27.4303 6.41667C27.4303 6.92083 27.8428 7.33333 28.347 7.33333C38.6595 7.33333 47.047 15.7208 47.047 26.0242C47.047 26.5283 47.4504 26.9408 47.9637 26.9408C48.4679 26.9408 48.8804 26.5283 48.8804 26.0242C48.8804 14.7033 39.6679 5.5 28.347 5.5ZM37.3029 35.6858L36.102 36.3367C34.0762 37.4458 31.5095 37.07 29.8687 35.4292L20.1887 25.7492C18.5478 24.1083 18.172 21.5417 19.2812 19.5067L19.932 18.315C20.6653 16.9583 20.9312 15.4367 20.7112 13.915C20.5034 12.3964 19.8011 10.9886 18.7128 9.90917C17.3745 8.57083 15.5962 7.8375 13.6987 7.8375C11.8012 7.8375 10.0137 8.57083 8.67535 9.90917L8.20785 10.3858C5.73285 12.8608 5.44868 17.1233 7.40118 22.4033C9.24368 27.445 12.9562 32.9083 17.8328 37.785C25.267 45.2192 33.5445 49.5 39.4845 49.5C41.8312 49.5 43.8204 48.8308 45.232 47.4192L45.7087 46.9425C46.3688 46.2831 46.8923 45.5 47.2494 44.6381C47.6065 43.7761 47.79 42.8522 47.7895 41.9192C47.7767 40.0403 47.0299 38.2409 45.7087 36.905C43.4995 34.6958 40.0437 34.2008 37.3029 35.6858Z" fill="black"/>
</svg>
