<svg width="50" height="49" viewBox="0 0 50 49" fill="none" xmlns="http://www.w3.org/2000/svg">
<path d="M36.6878 29.2986C36.1976 29.0549 33.0113 27.593 32.5211 27.3494C32.0309 27.1057 31.5407 27.1057 31.0505 27.593C30.5603 28.0803 29.5799 29.5422 29.0897 30.0295C28.8446 30.5168 28.3544 30.5168 27.8642 30.2731C26.1485 29.5422 24.4328 28.5676 22.9622 27.3494C21.7367 26.1311 20.5112 24.6693 19.5308 23.2074C19.2857 22.7201 19.5308 22.2328 19.7759 21.9891C20.021 21.7455 20.2661 21.2582 20.7563 21.0146C21.0014 20.7709 21.2465 20.2836 21.2465 20.04C21.4916 19.7963 21.4916 19.309 21.2465 19.0654C21.0014 18.8217 19.7759 15.898 19.2857 14.6797C19.0406 12.9742 18.5504 12.9742 18.0602 12.9742H16.8347C16.3445 12.9742 15.6092 13.4615 15.3641 13.7051C13.8935 15.167 13.1582 16.8726 13.1582 18.8217C13.4033 21.0146 14.1386 23.2074 15.6092 25.1566C18.3053 29.0549 21.7367 32.2223 25.9034 34.1715C27.1289 34.6588 28.1093 35.1461 29.3348 35.3897C30.5603 35.877 31.7858 35.877 33.2564 35.6334C34.9721 35.3897 36.4427 34.1715 37.4231 32.7096C37.9133 31.735 37.9133 30.7604 37.6682 29.7859L36.6878 29.2986ZM42.8153 7.12668C33.2564 -2.37556 17.8151 -2.37556 8.2562 7.12668C0.412998 14.9234 -1.0576 26.8621 4.3346 36.3643L0.903198 48.7903L13.8935 45.3793C17.57 47.3284 21.4916 48.303 25.4132 48.303C38.8937 48.303 49.6781 37.5826 49.6781 24.182C49.9232 17.8471 47.2271 11.756 42.8153 7.12668ZM36.1976 41.2373C33.0113 43.1864 29.3348 44.4047 25.4132 44.4047C21.7367 44.4047 18.3053 43.4301 15.119 41.7246L14.3837 41.2373L6.7856 43.1864L8.7464 35.877L8.2562 35.1461C2.3738 25.4002 5.315 13.2179 14.8739 7.12668C24.4328 1.0355 36.6878 4.20291 42.5702 13.4615C48.4526 22.9637 45.7565 35.3897 36.1976 41.2373Z" fill="black"/>
</svg>
